<?xml version="1.0" encoding="UTF-8"?>
<svg id="_1_White" data-name="_1 White" xmlns="http://www.w3.org/2000/svg" viewBox="0 0 701.26 170.16">
  <defs>
    <style>
      .cls-1, .cls-2 {
        fill: #fff;
      }

      .cls-2 {
        fill-rule: evenodd;
      }
    </style>
  </defs>
  <path class="cls-2" d="M689.37,46.62l-18.1,6.84c-11,4.16-8.54,12.61-6.89,21.81l2.1,11.86-6.46-17.6c-3.31-9.02-10.94-9.44-19.8-7.24l-38.1,9.49,37.09-12.2c8.77-2.88,15.44-8.25,13.67-17.84l-3.25-17.58,6.21,16.88c2.48,6.76,7.94,10.92,15.02,9.44l18.51-3.87Z"/>
  <g>
    <path class="cls-1" d="M28.94,126.7v-44.78h20.09c5.16,0,9.13,1.03,11.9,3.1,2.77,2.07,4.16,4.89,4.16,8.48,0,2.43-.54,4.48-1.63,6.14s-2.55,2.94-4.38,3.84c-1.83.9-3.82,1.34-5.95,1.34l1.15-1.92c2.56,0,4.82.45,6.78,1.34,1.96.9,3.52,2.21,4.67,3.93,1.15,1.73,1.73,3.87,1.73,6.43,0,3.84-1.44,6.81-4.32,8.92-2.88,2.11-7.15,3.17-12.83,3.17h-21.37ZM35.34,121.52h14.71c3.54,0,6.25-.6,8.12-1.79,1.88-1.19,2.81-3.07,2.81-5.63s-.94-4.5-2.81-5.69c-1.88-1.19-4.58-1.79-8.12-1.79h-15.29v-5.18h13.69c3.24,0,5.76-.6,7.55-1.79,1.79-1.19,2.69-2.98,2.69-5.37s-.9-4.18-2.69-5.37c-1.79-1.19-4.31-1.79-7.55-1.79h-13.11v34.42Z"/>
    <path class="cls-1" d="M83.77,121.14h26.1v5.57h-32.5v-44.78h31.6v5.57h-25.21v33.65ZM83.19,101.24h23.03v5.44h-23.03v-5.44Z"/>
    <path class="cls-1" d="M113.45,126.7l20.28-44.78h6.33l20.34,44.78h-6.72l-18.1-41.2h2.56l-18.1,41.2h-6.59ZM122.09,115.51l1.73-5.12h25.21l1.86,5.12h-28.79Z"/>
    <path class="cls-1" d="M184.65,127.21c-5.89,0-10.51-1.68-13.88-5.05-3.37-3.37-5.05-8.29-5.05-14.78v-25.46h6.4v25.21c0,4.99,1.1,8.64,3.29,10.94,2.2,2.3,5.3,3.45,9.31,3.45s7.17-1.15,9.37-3.45c2.2-2.3,3.29-5.95,3.29-10.94v-25.21h6.21v25.46c0,6.48-1.67,11.41-5.02,14.78-3.35,3.37-7.99,5.05-13.91,5.05Z"/>
    <path class="cls-1" d="M224.76,126.7v-39.22h-15.35v-5.57h37.04v5.57h-15.35v39.22h-6.33Z"/>
    <path class="cls-1" d="M263.72,126.7v-17.14l1.47,3.97-19.26-31.6h6.85l16.19,26.68h-3.71l16.25-26.68h6.33l-19.19,31.6,1.41-3.97v17.14h-6.33Z"/>
    <path class="cls-1" d="M293.53,126.7v-44.78h20.09c5.16,0,9.13,1.03,11.9,3.1,2.77,2.07,4.16,4.89,4.16,8.48,0,2.43-.54,4.48-1.63,6.14s-2.55,2.94-4.38,3.84c-1.83.9-3.82,1.34-5.95,1.34l1.15-1.92c2.56,0,4.82.45,6.78,1.34,1.96.9,3.52,2.21,4.67,3.93,1.15,1.73,1.73,3.87,1.73,6.43,0,3.84-1.44,6.81-4.32,8.92-2.88,2.11-7.15,3.17-12.83,3.17h-21.37ZM299.93,121.52h14.71c3.54,0,6.25-.6,8.12-1.79,1.88-1.19,2.81-3.07,2.81-5.63s-.94-4.5-2.81-5.69c-1.88-1.19-4.58-1.79-8.12-1.79h-15.29v-5.18h13.69c3.24,0,5.76-.6,7.55-1.79,1.79-1.19,2.69-2.98,2.69-5.37s-.9-4.18-2.69-5.37c-1.79-1.19-4.31-1.79-7.55-1.79h-13.11v34.42Z"/>
    <path class="cls-1" d="M362.18,127.21c-3.41,0-6.58-.58-9.5-1.73-2.92-1.15-5.45-2.76-7.58-4.83-2.13-2.07-3.8-4.49-4.99-7.26-1.19-2.77-1.79-5.8-1.79-9.08s.6-6.31,1.79-9.08c1.19-2.77,2.86-5.19,4.99-7.26,2.13-2.07,4.65-3.68,7.55-4.83,2.9-1.15,6.08-1.73,9.53-1.73s6.56.57,9.44,1.7c2.88,1.13,5.39,2.73,7.55,4.8,2.15,2.07,3.82,4.49,4.99,7.26,1.17,2.77,1.76,5.82,1.76,9.15s-.59,6.38-1.76,9.15c-1.17,2.77-2.84,5.19-4.99,7.26-2.15,2.07-4.67,3.67-7.55,4.8-2.88,1.13-6.02,1.7-9.44,1.7ZM362.18,121.52c2.47,0,4.77-.43,6.88-1.28,2.11-.85,3.94-2.06,5.5-3.61,1.56-1.56,2.77-3.38,3.65-5.47.87-2.09,1.31-4.37,1.31-6.85s-.44-4.75-1.31-6.85c-.88-2.09-2.09-3.91-3.65-5.47-1.56-1.56-3.39-2.76-5.5-3.61-2.11-.85-4.4-1.28-6.88-1.28s-4.83.43-6.94,1.28c-2.11.85-3.96,2.06-5.53,3.61-1.58,1.56-2.81,3.38-3.68,5.47-.87,2.09-1.31,4.37-1.31,6.85s.44,4.76,1.31,6.85c.87,2.09,2.1,3.91,3.68,5.47,1.58,1.56,3.42,2.76,5.53,3.61,2.11.85,4.42,1.28,6.94,1.28Z"/>
    <path class="cls-1" d="M388.21,126.7l18.62-25.4v4.93l-17.59-24.31h7.29l13.95,19.13-2.88.06,13.88-19.19h6.97l-17.46,23.93v-4.61l18.62,25.46h-7.36l-14.84-20.41h2.81l-14.65,20.41h-7.36Z"/>
    <path class="cls-1" d="M438.24,126.7v-44.78h2.75l20.79,35.89h-1.47l20.73-35.89h2.69l.06,44.78h-3.2l-.06-39.85h.9l-19.64,33.91h-1.6l-19.7-33.91h.96v39.85h-3.2Z"/>
    <path class="cls-1" d="M502.66,123.76h27.64v2.94h-30.9v-44.78h29.94v2.94h-26.68v38.9ZM502.28,102.52h24.25v2.88h-24.25v-2.88Z"/>
    <path class="cls-1" d="M542.2,126.7v-44.78h17.72c4.73,0,8.89.96,12.47,2.88,3.58,1.92,6.37,4.56,8.35,7.93,1.98,3.37,2.98,7.23,2.98,11.58s-.99,8.21-2.98,11.58c-1.98,3.37-4.77,6.01-8.35,7.93-3.58,1.92-7.74,2.88-12.47,2.88h-17.72ZM545.46,123.76h14.2c4.22,0,7.89-.83,11-2.49,3.11-1.66,5.52-3.96,7.23-6.88,1.71-2.92,2.56-6.28,2.56-10.08s-.85-7.15-2.56-10.08c-1.71-2.92-4.12-5.21-7.23-6.88-3.11-1.66-6.78-2.5-11-2.5h-14.2v38.9Z"/>
    <path class="cls-1" d="M595.04,126.7v-44.78h3.26v44.78h-3.26Z"/>
    <path class="cls-1" d="M606.42,126.7l20.6-44.78h3.26l20.6,44.78h-3.52l-19.45-42.73h1.41l-19.38,42.73h-3.52ZM613.97,114.1l1.09-2.75h26.8l1.09,2.75h-28.98Z"/>
  </g>
</svg>