<?xml version="1.0" encoding="UTF-8"?>
<svg id="Brush_Clean_PRO" data-name="Brush Clean PRO" xmlns="http://www.w3.org/2000/svg" viewBox="0 0 140 48">
  <defs>
    <style>
      .cls-1 {
        fill: #fff;
      }
    </style>
  </defs>
  <g>
    <g>
      <path class="cls-1" d="M37.17,5.24c.57.04,1.06.09,1.43.22,1.08.34,1.5.91,1.5,1.99,0,1.8-1.3,2.45-3.78,2.45h-10c.06-1.32.07-2.68.07-4.66s-.01-3.39-.07-4.66h9.83c2.6,0,3.8.71,3.8,2.36,0,.99-.35,1.54-1.19,1.91-.4.19-.93.27-1.59.32v.06ZM28.91,2.22c-.01.62-.01,1.39-.01,2.19,2.36.06,4.42.01,6.29.01,1.54,0,2.19-.4,2.19-1.12,0-.76-.6-1.09-2.06-1.09-1.94,0-4-.01-6.4.01ZM37.44,6.93c0-.73-.61-1.06-2.26-1.06-1.83,0-4.01-.01-6.29.02,0,.81,0,1.55.03,2.2,2.62.02,4.61.02,6.41.02,1.47,0,2.11-.34,2.11-1.19Z"/>
      <path class="cls-1" d="M52.66,6.01c1.96.21,2.82.61,3.34,2.05.31.88.53,1.5.71,1.84h-2.3c-.48,0-.56-.12-.82-1.04-.65-1.55-.89-1.95-3.33-1.95h-5.41c.03,1.21.07,2.25.15,3h-2.7c.03-1.35.05-2.66.05-4.66s-.01-3.32-.05-4.66h9.02c3.11,0,4.69.76,4.69,2.7,0,1.6-1.03,2.44-3.36,2.68v.05ZM50.49,5.13c2.24,0,3.05-.51,3.05-1.44,0-.98-.78-1.27-2.97-1.27-1.14,0-4.36,0-5.72.05-.01.88-.01,1.78,0,2.63.92.03,3.26.03,5.64.03Z"/>
      <path class="cls-1" d="M72.82.58c-.04.73-.05,1.47-.05,2.57,0,.58.03,1.38.03,2.01,0,3.55-1.88,5.01-7.22,5.01s-7.23-1.45-7.23-5.01c0-.63.02-1.43.02-2.01,0-1.11-.02-1.84-.05-2.57h2.66c-.04,1.28-.06,3.38-.06,4.5,0,2.05,1.38,2.93,4.71,2.93s4.6-.89,4.6-2.95c0-1.11-.03-3.21-.05-4.49h2.65Z"/>
      <path class="cls-1" d="M86.22,3.47c0-1.01-.7-1.37-4.28-1.37-3.32,0-4.09.34-4.09,1.02s.44.94,4.82,1.11c4.95.19,6.44.83,6.44,2.87s-1.79,3.08-6.86,3.08-7.11-.8-7.11-2.86c0-.21.01-.45.04-.68.34.04.83.06,1.29.06.48,0,.94,0,1.29-.02-.01.07-.01.16-.01.25,0,1.03,1.14,1.38,4.46,1.38,3.55,0,4.34-.37,4.34-1.09,0-.78-.63-1.02-4.65-1.12-5.32-.14-6.6-.97-6.6-2.81s1.78-2.97,6.67-2.97,6.77.71,6.77,2.9c0,.19,0,.37-.01.58-.29-.03-.77-.03-1.25-.03-.51,0-1.01,0-1.27.03v-.32Z"/>
      <path class="cls-1" d="M105.91.58c-.05,1.29-.06,2.7-.06,4.66s.01,3.32.05,4.66h-2.67c.05-.93.06-2.42.06-3.49-1.4-.06-3.06-.05-4.66-.05s-3.26-.01-4.66.04c0,1.08.01,2.58.06,3.5h-2.69c.06-1.34.06-2.68.06-4.66s.01-3.37-.06-4.66h2.69c-.05.91-.06,2.45-.06,3.58,1.4.05,3.06.03,4.66.03s3.27.02,4.66-.04c0-1.12-.01-2.66-.06-3.57h2.68Z"/>
      <path class="cls-1" d="M38.53,15.95c0-1.32-1.57-1.95-5.02-1.95-3.53.06-5.31.89-5.31,2.8s1.88,2.91,5.44,2.91,4.87-.67,4.87-1.91v-.27c.42.01.86.01,1.29.01s.86,0,1.28-.01c0,.12.01.25.01.39,0,2.25-1.63,3.85-7.46,3.85-5.42,0-8.08-1.57-8.08-4.91s3.17-4.81,7.94-4.81,7.57.89,7.57,3.63c0,.16,0,.34-.01.5-.41-.03-.85-.03-1.27-.03s-.85,0-1.27.03v-.21Z"/>
      <path class="cls-1" d="M46.02,12.23c-.04.76-.06,2.54-.07,4.66,0,.85,0,1.75.01,2.52,2.34,0,5.68.02,8.4-.04,0,.35-.01.72-.01,1.08s.01.73.01,1.09h-11.01c.01-1.07.05-2.67.05-4.66,0-2.1-.01-3.75-.05-4.66h2.67Z"/>
      <path class="cls-1" d="M68.99,12.23c-.01.21-.01.55-.01.85s0,.66.01.86c-3.14-.02-7.78-.04-10.38-.04v2.19c3.09,0,7.72-.01,10.22-.04,0,.39-.01,1.16,0,1.57-2.47-.01-7.16-.04-10.22-.04v2.19c2.6,0,7.37-.01,10.38-.04-.01.24-.01.6-.01.92s0,.67.01.91h-13.05c.05-1.24.05-2.67.05-4.66s0-3.43-.05-4.66h13.05Z"/>
      <path class="cls-1" d="M83.52,21.55c-.15-.31-.58-1.02-1.14-1.9-1.45-.01-2.96-.01-4.13-.01-1.04,0-2.61,0-4.02.01-.55.82-1.01,1.52-1.23,1.9h-3.09c1.84-2.41,5.62-7.73,6.54-9.32h3.79c1.12,1.83,4.71,6.81,6.62,9.32h-3.34ZM81.27,17.94c-.62-.94-1.27-1.91-1.81-2.7-.52-.76-.86-1.29-1.12-1.7-.27.42-.63.97-1.13,1.73-.53.8-1.18,1.74-1.81,2.67,1.02.01,2.09.01,2.87.01.83,0,1.95,0,3.01-.01Z"/>
    </g>
    <path class="cls-1" d="M88.01,21.08c.11-.1.22-.19.34-.28.35-.27.77-.4,1.19-.4.31,0,.61.08.86.24-.02-.87-.02-2.15-.02-3.78-.02-.76-.04-1.5-.09-2.21.45.39,1.01.78,1.55,1.17,2.35,1.66,5.84,4.08,7.29,5.26.17-.11.36-.18.58-.18.06,0,.17,0,.25.02.35.09.53.32.64.61h1.67c-.03-1.26-.03-2.64-.03-4.67s.01-3.48.05-4.65h-2.36c.05.76.09,2.62.09,4.72,0,.56.01,1.23.06,1.9-.36-.34-.83-.62-1.32-.94-2.42-1.7-7.07-4.98-7.73-5.68h-3.03c.04,1.26.04,2.68.04,4.66,0,1.75-.03,3.07-.04,4.2Z"/>
  </g>
  <g>
    <path class="cls-1" d="M81.24,46.79c-.48,0-.77-.27-.94-.69-.17-.38-.19-.79-.21-1.21-.04-.83-.06-1.65-.06-2.48,0-4.15.54-8.26,1.4-12.34.35-1.71.71-3.42,1.19-5.09.06-.23.1-.48.21-.69.17-.44.52-.71.94-.71l.17.02c.52.06.9.46.9,1.04-.02.46-.1.94-.21,1.4-.19.81-.42,1.61-.65,2.56.38-.29.44-.6.56-.88.73-1.48,1.56-2.92,2.56-4.25.38-.48.77-.96,1.29-1.33.35-.27.77-.4,1.19-.4.81,0,1.56.54,1.63,1.69v.27c0,.63-.1,1.23-.23,1.84-.06.27-.21.54-.21.85l.02.19c.33,0,.54-.23.77-.38,1.23-.73,2.52-1.31,3.88-1.75.25-.08.5-.15.77-.15.08,0,.19,0,.27.02.15.04.29.13.31.29v.04c0,.15-.1.23-.23.31l-.81.33c-2.19.81-4.11,2.09-5.84,3.65-.29.27-.5.56-.69.92-.54,1.08-1.13,2.15-1.86,3.13-.27.35-.56.69-.96.92-.19.1-.38.17-.56.17-.21,0-.42-.08-.6-.23-.23-.21-.33-.44-.33-.71,0-.13.02-.27.08-.42.29-.77.75-1.42,1.29-2.02.4-.44.69-.94.92-1.5.71-1.71,1.31-3.46,1.73-5.36-.44.02-.58.33-.77.56-1.52,1.75-2.63,3.77-3.48,5.94-1.15,2.9-1.77,5.9-1.96,8.99-.1,1.96-.21,3.9-.29,5.86-.02.33-.06.65-.21.94-.21.4-.48.65-.92.65h-.06Z"/>
    <path class="cls-1" d="M95.48,31.99c-.54-.1-.85-.5-.94-1.04l-.04-.38.02-.25c.27-2.02.63-4.02,1.21-5.98.06-.21.13-.4.21-.58.17-.38.42-.6.81-.6h.06c.42.02.69.29.81.81.02.13.02.27.04.58.44-.69.77-1.21,1.13-1.73.23-.33.54-.56.96-.56.06,0,.17,0,.25.02.5.13.67.54.73,1,.08.63.13,1.29.21,1.92.13.96.33,1.36.88,1.36.25,0,.54-.08.94-.21.86-.29,1.59-.79,2.23-1.42.19-.15.33-.33.52-.48.1-.08.21-.13.33-.13.08,0,.15.02.23.08.13.08.17.19.17.31,0,.1-.04.21-.13.33-.02.04-.06.08-.1.13-.9,1.08-1.94,2-3.29,2.46-.42.15-.81.21-1.15.21-.98,0-1.61-.58-1.98-1.81-.06-.17-.04-.35-.25-.48-.25.21-.31.54-.42.83-.5,1.25-.98,2.52-1.5,3.8-.17.46-.35.94-.69,1.33-.25.31-.58.52-.98.52l-.27-.04Z"/>
    <path class="cls-1" d="M103.64,29.86c-.06-.27-.15-.56-.15-.85l.02-.19c.15-1.27.42-2.5,1-3.67.35-.73.48-.81,1.29-1.04v-.08c-.06-.25-.08-.44-.08-.63,0-.38.15-.58.44-.75.17-.08.33-.13.52-.13.38,0,.79.19,1.08.52.17.21.33.42.42.67.15.5.5.6.94.67.65.1,1.31.15,1.96.15.81,0,1.63-.06,2.44-.15.15-.02.35-.06.5-.06.19,0,.35.06.4.31l.02.13c0,.44-.5.4-.81.48-1.21.27-2.42.42-3.65.42l-.86-.02c-.44,0-.44.08-.46.63-.04,1.38-.38,2.63-1.21,3.73-.33.44-.71.79-1.21,1.02-.29.15-.6.21-.9.21-.77,0-1.46-.48-1.71-1.36ZM106.81,25.75c0-.19,0-.4-.04-.6-.35.88-.69,1.75-.69,2.73v.08c.48-.69.73-1.42.73-2.21Z"/>
  </g>
</svg>