<?xml version="1.0" encoding="UTF-8"?>
<svg id="Cosmedica" xmlns="http://www.w3.org/2000/svg" viewBox="0 0 140 48">
  <defs>
    <style>
      .cls-1 {
        fill: #fff;
      }
    </style>
  </defs>
  <path class="cls-1" d="M23.25,29.73c.08.03.16-.01.19-.1.03-.08-.01-.16-.1-.19-.08-.03-.16.01-.19.1-.03.07.02.16.09.19Z"/>
  <path class="cls-1" d="M21.19,30.88c-.09-.03-.21.02-.24.12-.03.09.02.2.12.24.11.03.2-.02.24-.12.03-.1-.03-.21-.12-.24Z"/>
  <path class="cls-1" d="M18.73,31.7c-.12-.05-.25.03-.29.14-.03.12.03.25.14.29.13.04.26-.02.3-.14.04-.13-.03-.26-.15-.3Z"/>
  <path class="cls-1" d="M16.14,31.85c-.14-.04-.28.03-.33.16-.05.14.02.29.16.33.14.05.29-.02.33-.17.05-.13-.03-.28-.17-.33Z"/>
  <path class="cls-1" d="M13.59,31.33c-.16-.05-.33.04-.38.19-.05.16.03.33.19.38.16.05.33-.03.38-.19.05-.16-.04-.33-.19-.38Z"/>
  <path class="cls-1" d="M11.25,30.16c-.18-.07-.37.03-.43.21-.06.18.03.37.22.43.17.07.36-.03.43-.22.06-.18-.03-.37-.22-.42Z"/>
  <path class="cls-1" d="M9.51,28.88c.07-.2-.04-.4-.23-.47-.2-.06-.4.04-.47.23-.06.2.04.4.23.47.19.06.4-.04.46-.23Z"/>
  <path class="cls-1" d="M7.84,26.2c-.22-.07-.47.05-.54.27-.07.21.05.46.27.53.22.08.46-.04.53-.27.07-.23-.04-.46-.26-.54Z"/>
  <path class="cls-1" d="M6.98,23.71c-.24-.08-.5.05-.57.29-.08.24.05.49.28.58.24.07.49-.06.57-.3.08-.23-.04-.48-.28-.57Z"/>
  <path class="cls-1" d="M7.16,21.7c.09-.27-.07-.57-.33-.66-.28-.1-.58.05-.67.34-.09.27.05.57.33.66.28.09.58-.06.67-.33Z"/>
  <path class="cls-1" d="M7.71,19.15c.1-.31-.07-.64-.37-.74-.31-.11-.64.07-.74.37-.11.31.07.65.37.75.31.1.64-.07.75-.38Z"/>
  <path class="cls-1" d="M8.49,16c-.34-.12-.7.07-.82.41-.11.33.07.7.41.82.34.11.71-.07.82-.41.11-.34-.08-.7-.41-.81Z"/>
  <path class="cls-1" d="M9.76,15.33c.38.13.79-.08.92-.46.13-.38-.08-.79-.46-.92-.38-.13-.8.08-.92.46-.13.38.08.79.46.92Z"/>
  <path class="cls-1" d="M12.9,13.42c.14-.41-.09-.86-.5-1-.41-.13-.85.09-.99.5-.13.41.08.86.5,1,.41.13.85-.09.99-.5Z"/>
  <path class="cls-1" d="M15.41,12.57c.15-.43-.1-.9-.53-1.05-.43-.14-.91.09-1.05.52-.14.44.09.91.53,1.05.43.15.91-.09,1.05-.53Z"/>
  <path class="cls-1" d="M16.93,13.02c.5.17,1.03-.1,1.2-.6.16-.5-.1-1.04-.61-1.2-.5-.16-1.03.11-1.2.61-.17.49.1,1.03.6,1.19Z"/>
  <path class="cls-1" d="M25.93,30.4c-.07-.02-.16.01-.18.09-.03.08.02.16.09.19.07.02.16-.01.18-.09.03-.08-.02-.16-.1-.19Z"/>
  <path class="cls-1" d="M23.98,32.11c-.09-.03-.19.03-.21.11-.04.09.02.19.11.22.09.03.19-.02.22-.11.03-.09-.02-.19-.11-.23Z"/>
  <path class="cls-1" d="M21.73,33.37c-.11-.03-.23.02-.27.13-.03.11.03.23.13.26.11.04.23-.02.26-.13.04-.11-.02-.23-.12-.26Z"/>
  <path class="cls-1" d="M19.24,34.17c-.11-.03-.23.02-.27.13-.04.11.02.23.13.27.11.03.22-.02.26-.13.04-.11-.02-.23-.12-.27Z"/>
  <path class="cls-1" d="M16.65,34.39c-.13-.04-.26.03-.3.16-.05.13.03.27.15.31.12.04.26-.03.31-.16.04-.12-.03-.26-.16-.31Z"/>
  <path class="cls-1" d="M14.05,34.08c-.14-.05-.29.03-.34.17-.04.14.03.3.17.34.14.05.29-.03.34-.18.05-.14-.03-.3-.17-.34Z"/>
  <path class="cls-1" d="M11.58,33.22c-.15-.05-.33.04-.38.2-.06.16.03.33.19.39.16.05.34-.04.39-.19.05-.16-.03-.34-.2-.39Z"/>
  <path class="cls-1" d="M9.57,32.3c.06-.2-.04-.39-.23-.46-.19-.06-.4.04-.46.23-.06.19.04.39.23.45.19.07.39-.04.46-.22Z"/>
  <path class="cls-1" d="M7.65,30.54c.06-.19-.04-.4-.24-.46-.19-.06-.4.04-.46.23-.07.19.04.4.23.47.19.05.4-.04.47-.24Z"/>
  <path class="cls-1" d="M5.39,28.18c-.07.21.04.43.26.51.22.07.44-.04.51-.26.07-.21-.05-.44-.27-.51-.21-.08-.43.04-.5.26Z"/>
  <path class="cls-1" d="M4.86,25.48c-.24-.08-.49.05-.57.29-.08.24.05.5.28.57.24.08.49-.04.57-.29.08-.24-.05-.49-.29-.57Z"/>
  <path class="cls-1" d="M4.68,23.51c.09-.27-.06-.55-.32-.64-.27-.09-.56.06-.65.32-.08.27.06.56.33.64.27.09.54-.06.64-.32Z"/>
  <path class="cls-1" d="M4.73,20.91c.1-.29-.06-.6-.34-.7-.29-.09-.6.07-.7.35-.1.29.07.6.35.69.29.09.6-.06.69-.35Z"/>
  <path class="cls-1" d="M4.2,17.99c-.1.31.07.65.38.75.31.1.65-.07.76-.38.1-.31-.07-.65-.38-.75-.32-.1-.65.07-.76.38Z"/>
  <path class="cls-1" d="M6.47,16c.11-.34-.08-.7-.41-.82-.34-.11-.7.07-.82.41-.11.33.07.7.4.82.34.11.7-.07.83-.41Z"/>
  <path class="cls-1" d="M7.18,14.34c.37.12.75-.08.87-.44.12-.36-.07-.75-.43-.86-.37-.12-.76.07-.87.43-.12.36.08.75.43.87Z"/>
  <path class="cls-1" d="M10.06,12.19c.13-.4-.08-.82-.47-.96-.39-.12-.82.09-.95.48-.13.39.08.82.48.95.4.13.81-.09.95-.47Z"/>
  <path class="cls-1" d="M11.36,11.45c.44.15.9-.1,1.05-.52.14-.44-.1-.91-.53-1.06-.44-.15-.91.09-1.05.53-.14.44.09.91.52,1.05Z"/>
  <path class="cls-1" d="M13.29,9.59c-.15.45.1.95.56,1.1.46.15.95-.1,1.1-.56.16-.46-.1-.95-.56-1.11-.46-.15-.95.1-1.1.57Z"/>
  <path class="cls-1" d="M17.58,9.89c.16-.47-.1-.99-.58-1.14-.48-.17-.99.1-1.15.57-.16.48.1.99.58,1.15.47.16.99-.1,1.15-.58Z"/>
  <path class="cls-1" d="M20.31,10.23c.18-.55-.12-1.14-.66-1.32-.54-.18-1.13.11-1.32.66-.18.54.11,1.13.66,1.32.54.18,1.13-.11,1.31-.65Z"/>
  <path class="cls-1" d="M28.46,31.29c-.07-.02-.15.01-.17.09-.02.07.01.15.09.17.07.02.15-.02.17-.09.02-.07-.01-.15-.09-.18Z"/>
  <path class="cls-1" d="M26.67,33.17c-.08-.03-.18.02-.21.1-.03.09.01.19.11.22.08.03.18-.02.21-.11.02-.09-.02-.18-.11-.21Z"/>
  <path class="cls-1" d="M24.58,34.72c-.1-.03-.2.02-.23.11-.03.09.02.2.11.23.09.03.2-.02.23-.11.04-.1-.02-.21-.11-.23Z"/>
  <path class="cls-1" d="M22.24,35.86c-.11-.03-.23.03-.26.13-.03.11.03.23.13.27.11.04.23-.02.27-.13.03-.11-.03-.23-.14-.26Z"/>
  <path class="cls-1" d="M19.75,36.6c-.12-.03-.24.02-.28.14-.04.11.02.24.14.28.11.03.24-.03.28-.15.04-.11-.03-.24-.14-.28Z"/>
  <path class="cls-1" d="M17.16,36.87c-.13-.04-.28.03-.33.16-.04.14.03.28.17.32.13.04.27-.03.32-.16.05-.14-.03-.28-.16-.32Z"/>
  <path class="cls-1" d="M14.55,36.7c-.15-.05-.3.03-.36.18-.05.15.03.29.18.34.15.05.31-.03.35-.17.05-.15-.03-.3-.17-.35Z"/>
  <path class="cls-1" d="M12.01,36.07c-.16-.05-.33.04-.39.2-.05.16.03.33.2.38.16.06.33-.03.38-.19.06-.16-.04-.33-.2-.39Z"/>
  <path class="cls-1" d="M9.63,35.01c-.18-.05-.37.04-.43.21-.06.17.03.36.21.42.18.06.37-.03.42-.21.06-.17-.03-.36-.2-.42Z"/>
  <path class="cls-1" d="M7.66,34c.06-.19-.04-.39-.22-.45-.19-.06-.39.04-.45.22-.06.19.04.39.22.45.18.06.38-.04.44-.22Z"/>
  <path class="cls-1" d="M5.79,32.21c.07-.2-.04-.42-.24-.49-.21-.07-.42.04-.49.24-.07.2.04.42.25.49.2.07.43-.05.49-.25Z"/>
  <path class="cls-1" d="M4,29.61c-.21-.08-.45.04-.52.26-.07.21.05.44.26.51.21.07.45-.04.52-.26.07-.22-.05-.45-.26-.51Z"/>
  <path class="cls-1" d="M2.84,27.23c-.24-.08-.5.05-.57.28-.08.24.04.49.29.57.24.08.49-.05.57-.29.08-.24-.05-.49-.28-.57Z"/>
  <path class="cls-1" d="M2.4,25.29c.08-.24-.06-.51-.3-.6-.25-.08-.53.05-.6.31-.08.25.05.52.31.6.25.08.52-.05.6-.31Z"/>
  <path class="cls-1" d="M1.8,22.05c-.27-.09-.57.06-.66.33-.09.28.06.57.33.66.27.08.57-.06.66-.33.1-.27-.06-.57-.33-.65Z"/>
  <path class="cls-1" d="M1.96,19.41c-.28-.09-.6.06-.7.35-.1.3.06.61.35.71.29.09.6-.06.7-.35.1-.29-.06-.6-.36-.7Z"/>
  <path class="cls-1" d="M2.96,17.58c.11-.31-.06-.65-.38-.76-.31-.1-.64.07-.75.38-.1.32.07.65.38.75.31.11.65-.06.75-.38Z"/>
  <path class="cls-1" d="M3.23,15.59c.34.11.7-.07.81-.41.11-.33-.07-.69-.4-.8-.34-.11-.69.08-.81.4-.11.34.07.7.4.81Z"/>
  <path class="cls-1" d="M4.23,12.59c-.12.35.07.73.43.86.36.12.74-.08.87-.43.11-.36-.08-.74-.43-.86-.36-.11-.75.08-.86.44Z"/>
  <path class="cls-1" d="M5.97,10.67c-.12.39.09.8.47.93.39.13.8-.08.93-.47.13-.38-.08-.79-.47-.92-.38-.13-.8.08-.93.46Z"/>
  <path class="cls-1" d="M8.03,9.09c-.13.4.09.84.49.98.4.13.84-.09.97-.5.13-.4-.08-.83-.49-.97-.4-.13-.84.09-.98.49Z"/>
  <path class="cls-1" d="M10.31,7.9c-.15.44.09.91.53,1.05.43.15.91-.08,1.05-.53.14-.43-.09-.9-.53-1.05-.43-.14-.91.09-1.05.53Z"/>
  <path class="cls-1" d="M12.79,7.14c-.15.46.1.94.56,1.09.45.15.95-.09,1.09-.55.15-.45-.1-.95-.55-1.09-.46-.15-.95.09-1.1.55Z"/>
  <path class="cls-1" d="M15.32,6.82c-.16.49.11,1.02.6,1.18.48.16,1.02-.11,1.18-.59.16-.5-.1-1.03-.59-1.19-.5-.16-1.03.11-1.19.6Z"/>
  <path class="cls-1" d="M17.88,6.95c-.17.52.1,1.07.63,1.25.52.17,1.09-.11,1.26-.63.17-.52-.12-1.08-.63-1.26-.52-.17-1.08.11-1.25.63Z"/>
  <path class="cls-1" d="M20.37,7.54c-.18.55.12,1.14.67,1.32.55.18,1.14-.12,1.32-.67.19-.54-.11-1.15-.67-1.32-.55-.19-1.13.11-1.32.67Z"/>
  <path class="cls-1" d="M24.88,27.58c-.02.07.01.13.08.16.07.03.14-.01.16-.08.02-.07-.02-.13-.08-.16-.07-.02-.13.02-.16.08Z"/>
  <path class="cls-1" d="M27.48,28.31c-.06-.02-.13.02-.15.07-.02.07.01.14.08.17.07.01.14-.02.16-.08.01-.07-.02-.14-.09-.16Z"/>
  <path class="cls-1" d="M29.89,29.12c-.07-.02-.14.01-.16.08-.03.06.02.13.08.16.06.02.14-.02.16-.08.02-.07-.01-.13-.08-.16Z"/>
  <path class="cls-1" d="M20.09,11.71c-.1-.03-.2-.05-.3-.05-.41,0-.78.26-.91.65-.16.5.11,1.05.61,1.21.1.03.2.05.3.05.41,0,.78-.27.91-.66.08-.24.06-.49-.05-.72-.11-.23-.31-.4-.56-.48Z"/>
  <path class="cls-1" d="M23.13,14.08c.18-.55-.11-1.13-.66-1.31-.11-.03-.22-.05-.33-.05-.45,0-.84.29-.98.71-.09.27-.07.55.06.8.12.24.34.42.6.51.11.04.22.06.33.06.44,0,.84-.29.97-.71Z"/>
  <path class="cls-1" d="M25.2,15.82c.1-.29.08-.6-.06-.87-.14-.27-.37-.47-.66-.57-.12-.04-.24-.06-.36-.06-.49,0-.92.31-1.08.78-.2.6.13,1.24.72,1.44.12.04.24.06.36.06.49,0,.93-.31,1.08-.78Z"/>
  <path class="cls-1" d="M21.48,11.71c.11.03.22.05.32.05.45,0,.84-.29.99-.72.09-.26.07-.54-.06-.79-.13-.25-.34-.43-.61-.52-.11-.04-.22-.05-.33-.05-.45,0-.84.28-.98.71-.18.54.12,1.13.66,1.31Z"/>
  <path class="cls-1" d="M25.1,12.39c.19-.59-.12-1.19-.7-1.39-.11-.04-.23-.06-.35-.06-.47,0-.89.3-1.04.75-.19.58.11,1.18.69,1.38.11.03.22.05.34.05.47,0,.89-.3,1.05-.74Z"/>
  <path class="cls-1" d="M25.62,14.92c.12.04.24.06.37.06.51,0,.96-.32,1.12-.81.21-.63-.12-1.28-.75-1.49-.12-.04-.25-.06-.37-.06-.51,0-.96.32-1.11.81-.2.62.13,1.29.74,1.49Z"/>
  <path class="cls-1" d="M23.45,9.88c.11.03.22.05.32.05.45,0,.84-.28.97-.7.09-.27.07-.55-.05-.79-.12-.25-.34-.43-.6-.52-.11-.03-.22-.05-.33-.05-.44,0-.83.29-.97.71-.09.26-.07.54.06.79.12.25.33.43.6.51Z"/>
  <path class="cls-1" d="M25.61,11.37c.11.04.22.06.34.06.46,0,.88-.3,1.03-.74.19-.58-.11-1.18-.69-1.37-.11-.04-.23-.06-.34-.06-.46,0-.87.3-1.02.74-.19.57.12,1.18.68,1.37Z"/>
  <path class="cls-1" d="M26.77,11.78c-.1.28-.07.59.06.86.14.28.37.48.67.58.12.04.24.06.36.06.49,0,.92-.32,1.08-.78.2-.6-.12-1.25-.72-1.45-.11-.04-.23-.05-.35-.05-.5,0-.94.31-1.09.79Z"/>
  <path class="cls-1" d="M25.97,16.48c-.13-.04-.26-.06-.39-.06-.52,0-.98.33-1.14.82-.1.32-.08.65.07.94.15.28.39.5.7.59.12.04.25.06.38.06.52,0,.99-.34,1.15-.83.21-.64-.14-1.32-.77-1.53Z"/>
  <path class="cls-1" d="M27.88,14.81c-.12-.04-.24-.06-.37-.06-.5,0-.95.32-1.11.81-.21.61.12,1.28.74,1.49.12.04.24.06.37.06.51,0,.96-.32,1.12-.8.21-.63-.12-1.29-.75-1.49Z"/>
  <path class="cls-1" d="M29.79,13.1c-.12-.04-.25-.06-.38-.06-.18,0-.36.04-.53.13-.29.14-.5.39-.6.69-.21.62.14,1.31.76,1.52.12.04.25.06.38.06.19,0,.38-.04.55-.13.28-.14.49-.39.59-.69.13-.4.05-.81-.2-1.13,0,0-.38-.32-.56-.39Z"/>
  <path class="cls-1" d="M34.81,22.05c0-3.2,2.09-5.74,5.31-5.74,1.91,0,2.99.75,3.89,1.86l-.82.73c-.79-1.09-1.79-1.52-2.99-1.52-2.57,0-4.13,2.05-4.13,4.67s1.57,4.7,4.13,4.7c1.2,0,2.2-.46,2.99-1.55l.82.73c-.89,1.13-1.98,1.88-3.89,1.88-3.22,0-5.31-2.56-5.31-5.77Z"/>
  <path class="cls-1" d="M46.2,22.05c0-3.2,2.05-5.74,5.24-5.74s5.29,2.54,5.29,5.74-2.05,5.77-5.29,5.77-5.24-2.56-5.24-5.77ZM55.46,22.05c0-2.42-1.43-4.67-4.02-4.67s-3.99,2.25-3.99,4.67,1.45,4.7,3.99,4.7,4.02-2.25,4.02-4.7Z"/>
  <path class="cls-1" d="M58.93,26.07l.7-.87c.7.88,2,1.61,3.54,1.61,1.84,0,2.93-.95,2.93-2.22,0-3-6.93-1.3-6.93-5.25,0-1.68,1.43-3.04,3.91-3.04,1.88,0,3.13.73,3.93,1.61l-.66.84c-.63-.86-1.81-1.45-3.26-1.45-1.7,0-2.73.86-2.73,2,0,2.74,6.9,1.06,6.9,5.28,0,1.77-1.36,3.22-4.11,3.22-1.77,0-3.13-.52-4.22-1.74Z"/>
  <path class="cls-1" d="M83.54,27.54v-7.67c0-1.54-.66-2.5-2.2-2.5-1.18,0-2.52.87-3.13,1.86v8.31h-1.2v-7.67c0-1.54-.64-2.5-2.18-2.5-1.18,0-2.5.89-3.16,1.89v8.28h-1.18v-10.96h1.18v1.66c.46-.71,1.95-1.93,3.54-1.93,1.7,0,2.62,1,2.89,2.06.61-1.02,2.09-2.06,3.63-2.06,2.02,0,3,1.13,3,3.34v7.89h-1.18Z"/>
  <path class="cls-1" d="M87.47,22.05c0-3.18,2.23-5.74,5.27-5.74,3.34,0,5.19,2.63,5.19,5.81v.32h-9.17c.11,2.38,1.7,4.36,4.29,4.36,1.38,0,2.66-.52,3.59-1.52l.61.77c-1.09,1.13-2.48,1.77-4.29,1.77-3.2,0-5.48-2.38-5.48-5.77ZM92.71,17.33c-2.58,0-3.88,2.27-3.97,4.18h7.97c-.02-1.86-1.25-4.18-4-4.18Z"/>
  <path class="cls-1" d="M109.06,27.54v-1.75c-.77,1.14-2.18,2.02-3.81,2.02-2.91,0-4.88-2.22-4.88-5.74s1.97-5.77,4.88-5.77c1.56,0,2.95.79,3.81,2.04v-5.95h1.2v15.14h-1.2ZM109.06,24.8v-5.42c-.64-1.07-2.07-2-3.61-2-2.43,0-3.83,2.05-3.83,4.7s1.4,4.68,3.83,4.68c1.54,0,2.97-.91,3.61-1.96Z"/>
  <path class="cls-1" d="M113.89,13.95c0-.5.43-.89.91-.89.5,0,.91.38.91.89s-.41.91-.91.91c-.47,0-.91-.41-.91-.91ZM114.21,16.58h1.18v10.96h-1.18v-10.96Z"/>
  <path class="cls-1" d="M118.64,22.05c0-3.2,2.09-5.74,5.31-5.74,1.91,0,3,.75,3.88,1.86l-.81.73c-.79-1.09-1.79-1.52-3-1.52-2.56,0-4.13,2.05-4.13,4.67s1.56,4.7,4.13,4.7c1.21,0,2.21-.46,3-1.55l.81.73c-.88,1.13-1.97,1.88-3.88,1.88-3.22,0-5.31-2.56-5.31-5.77Z"/>
  <path class="cls-1" d="M137.7,27.54v-1.29c-.98,1.07-2.2,1.56-3.72,1.56-1.88,0-3.83-1.29-3.83-3.65s1.92-3.63,3.83-3.63c1.52,0,2.77.5,3.72,1.56v-2.23c0-1.63-1.32-2.52-2.92-2.52-1.39,0-2.46.48-3.46,1.61l-.65-.82c1.14-1.22,2.41-1.84,4.23-1.84,2.23,0,4,1.07,4,3.52v7.71h-1.18ZM137.7,25.38v-2.41c-.77-1.02-2-1.52-3.31-1.52-1.8,0-3,1.16-3,2.72s1.2,2.7,3,2.7c1.31,0,2.54-.5,3.31-1.5Z"/>
  <path class="cls-1" d="M35.98,39.11l.25-.22c.39.48,1.05.94,1.96.94,1.47,0,1.83-.83,1.83-1.43,0-2.09-3.84-1.05-3.84-3.21,0-1.02.94-1.62,1.98-1.62.93,0,1.6.34,2.05.89l-.24.22c-.44-.58-1.08-.83-1.81-.83-.92,0-1.65.55-1.65,1.33,0,1.8,3.84.85,3.84,3.21,0,.71-.46,1.72-2.17,1.72-.99,0-1.75-.43-2.21-1.01Z"/>
  <polygon class="cls-1" points="47.77 40.01 44.96 36.9 44.2 37.72 44.2 40.01 43.9 40.01 43.9 33.67 44.2 33.67 44.2 37.33 47.49 33.67 47.9 33.67 45.15 36.7 48.18 40.01 47.77 40.01"/>
  <rect class="cls-1" x="51.5" y="33.67" width=".3" height="6.33"/>
  <polygon class="cls-1" points="60.25 40.01 55.98 34.17 55.98 40.01 55.68 40.01 55.68 33.67 55.98 33.67 60.25 39.46 60.25 33.67 60.55 33.67 60.55 40.01 60.25 40.01"/>
  <path class="cls-1" d="M64.17,36.85c0-1.95,1.4-3.28,3.16-3.28.89,0,1.64.35,2.2,1l-.23.21c-.45-.56-1.18-.92-1.97-.92-1.58,0-2.83,1.21-2.83,2.99s1.25,2.98,2.83,2.98c.79,0,1.52-.36,1.97-.92l.24.2c-.6.67-1.32,1-2.21,1-1.76,0-3.16-1.33-3.16-3.27Z"/>
  <path class="cls-1" d="M77.68,40.01l-.7-1.7h-3.53l-.7,1.7h-.35l2.64-6.33h.37l2.64,6.33h-.35ZM75.22,34.03l-1.65,3.99h3.3l-1.65-3.99Z"/>
  <path class="cls-1" d="M85.04,40.01l-1.92-2.73h-1.52v2.73h-.31v-6.33h2.19c1.02,0,1.87.64,1.87,1.79s-.85,1.81-1.87,1.81l1.95,2.73h-.39ZM85.01,35.47c0-.87-.61-1.51-1.54-1.51h-1.88v3.03h1.88c.93,0,1.54-.65,1.54-1.52Z"/>
  <polygon class="cls-1" points="88.95 40.01 88.95 33.67 92.82 33.67 92.82 33.96 89.25 33.96 89.25 36.61 92.75 36.61 92.75 36.9 89.25 36.9 89.25 39.72 92.82 39.72 92.82 40.01 88.95 40.01"/>
</svg>