<?xml version="1.0" encoding="UTF-8"?>
<svg id="DEMETER" xmlns="http://www.w3.org/2000/svg" viewBox="0 0 140 48">
  <defs>
    <style>
      .cls-1 {
        fill: #fff;
      }
    </style>
  </defs>
  <path class="cls-1" d="M126.53,34.77l-1.85,3.25c-.13.03-.15-.07-.21-.15-.65-.86-1.12-2.12-1.77-3.01l-1.22-.08,2.61,4.37v3.29h1.08v-3.38l2.61-4.28h-1.26ZM118.32,39.14c2.48-.32,2.43-4.04-.05-4.37-.78-.1-1.76.08-2.57,0v7.66c.24-.05.98.13,1.07-.15.04-1.02-.18-1.98.01-3.01l.54.13,1.98,3.02h1.35l-2.34-3.29ZM116.7,38.24v-2.43c.1-.31,1.44-.09,1.75.05.84.39.97,1.64.21,2.17-.45.32-1.49.51-1.96.21ZM103.45,39.14c2.47-.32,2.4-4.04-.05-4.37-.78-.1-1.76.08-2.57,0v7.66h1.08v-3.24l.45.13,2.07,3.11h1.35l-2.34-3.29ZM101.92,38.37v-2.7c.98-.05,2.35.01,2.35,1.31,0,1.31-1.31,1.45-2.35,1.4ZM97.32,38.37c1.49-1.1.89-3.36-.95-3.6-.75-.1-1.7.07-2.48,0v7.66h2.66c.13,0,.87-.24,1.03-.32,1.64-.72,1.51-3.34-.27-3.74ZM94.89,35.67c1.11-.17,2.75.19,2.17,1.67-.08.21-.6.67-.77.67h-1.4v-2.34ZM97.32,41.11c-.15.13-.86.41-1.03.41h-1.4v-2.61h1.58s.51.18.59.22c.71.38.86,1.45.26,1.98ZM90.2,34.77v7.66h1.08v-7.66h-1.08ZM85.52,41.44v-6.67h-1.08v7.66h3.79v-.99h-2.7ZM78.16,41.45c-.79.2-1.63.03-2.43,0-.11,0-.77.2-.77-.06v-2.75h3.15v-.9h-3.15v-2.07h3.33l-.09-.9h-4.24v7.66h4.19c.2-.11.21-.93,0-.98ZM44.5,39.23l1.12-.59c1.29-1.26.69-3.63-1.17-3.87-.78-.1-1.76.08-2.57,0v7.66h.99v-3.15l.52.02,2.09,3.09,1.26.04-2.25-3.2ZM42.88,38.37v-2.7c1.02-.04,2.41-.04,2.44,1.31.03,1.29-1.45,1.48-2.44,1.4ZM20.71,39.22c-.05-.17.43-.21.6-.29,1.86-.97,1.35-3.88-.74-4.16-.78-.1-1.76.08-2.57,0v7.66h.99v-3.15l.48.02,2.17,3.05,1.31.08-2.25-3.2ZM19,38.24v-2.57c1.21-.08,2.75.11,2.39,1.72-.15.7-.99.95-1.63.99-.25.01-.6.06-.77-.14ZM15.75,35.67v-.9h-3.97v7.66c.25-.05.98.13,1.07-.15l-.08-3.55h2.88v-.99h-2.88l.09-2.07h2.88ZM70.88,41.18c-3.17,1.78-5.87-2.4-3.58-4.75,1.26-1.29,3.18-1.01,4.42.14l-.04-1.26c-2.82-1.86-6.44.18-6.27,3.57.16,3.11,3.78,4.64,6.31,3.01v-1.26c-.32.11-.53.38-.84.56ZM39.73,38.46h-3.15v.9h2.07c-.36,2.88-4.18,2.98-5.18.36-1.27-3.34,2.97-5.71,5.15-2.89l.67-.67c-1.44-2.13-4.75-2.04-6.26-.04-1.41,1.86-.94,4.73,1.12,5.9,2.73,1.55,5.94-.4,5.59-3.56ZM130.94,36.43c1.22-.87.03-1.41-.99-1.22v1.98h.36c.06-.17-.14-.86.14-.81.51.17.36,1.01,1.04.81l-.54-.77ZM130.31,36.12v-.63l.7.11c.13.16.08.34-.07.48l-.63.04ZM130.94,36.43c1.22-.87.03-1.41-.99-1.22v1.98h.36c.06-.17-.14-.86.14-.81.51.17.36,1.01,1.04.81l-.54-.77ZM130.31,36.12v-.63l.7.11c.13.16.08.34-.07.48l-.63.04ZM130.67,34.4c-1.01,0-1.82.82-1.82,1.82s.82,1.82,1.82,1.82,1.82-.82,1.82-1.82-.82-1.82-1.82-1.82ZM130.67,37.73c-.83,0-1.5-.67-1.5-1.5s.67-1.5,1.5-1.5,1.5.67,1.5,1.5-.67,1.5-1.5,1.5ZM129.95,35.22v1.98h.36c.06-.17-.14-.86.14-.81.51.17.36,1.01,1.04.81l-.54-.77c1.22-.87.03-1.41-.99-1.22ZM130.31,36.12v-.63l.7.11c.13.16.08.34-.07.48l-.63.04ZM110.48,34.41l-3.69,8.02,1.13-.09.91-1.97,3.2.04.89,1.97,1.08.04-3.52-8.02ZM109.13,39.45l1.22-2.8.42.75c.22.7.63,1.34.8,2.04h-2.43ZM63.19,34.78h-.93s0,5.4,0,5.4l-5.59-5.77v8.02h.99v-5.5l5.59,5.77.09-7.71-.15-.21ZM51.36,34.41l-3.52,8.02,1.09-.04c.16-.11.59-1.6.82-1.89.11-.14.14-.13.3-.15.88-.1,1.97.07,2.88.02l.98,2.04h1.16s-3.69-8.01-3.69-8.01ZM50.18,39.45l1.17-2.79c.06-.04.16.15.2.21.43.8.66,1.77,1.06,2.59h-2.43ZM27.6,34.41l-3.65,8.02h1.16s.82-2.02.82-2.02l3.2-.04.98,2.04h1.16s-3.65-8.01-3.65-8.01ZM26.39,39.45c.33-.82.65-1.81,1.06-2.59.03-.06.14-.25.2-.21l1.17,2.79h-2.43ZM131.03,20.39c5.74-.88,6.55-9.44.83-11.11-2.34-.68-5-.27-7.41-.39v19.56h2.79v-7.75l.77-.05,5.49,7.8h3.2l-5.68-8.07ZM127.25,18.36v-7.03h2.03c.78,0,2.34.49,2.93,1.03,1.44,1.32,1.07,4.26-.6,5.26-.5.3-1.86.74-2.42.74h-1.94ZM109.54,11.33h7.98v-2.43h-10.82v19.56h10.68l.14-.14v-2.3h-8.11v-6.85h7.71l.14-.14v-2.25l-.14-.14h-7.71v-5.18l.14-.14ZM88.22,8.9v2.43h4.78v17.13h2.66l.14-.14V11.33h4.69v-2.43h-12.26ZM74.65,11.33h7.89v-2.43h-10.73v19.56h10.73v-2.43h-7.89l-.14-.14v-6.71h7.62l.14-.14v-2.39h-7.75v-5.18l.14-.14ZM37.29,11.33v-2.43h-10.82v19.56h10.73v-2.43h-7.93v-6.85h7.62l.14-.14v-2.25l-.14-.14h-7.62v-5.32h8.02ZM15.6,10.36c-3.23-1.92-7.06-1.39-10.66-1.46v19.56c3.79-.02,7.87.4,11.11-1.91,5.27-3.75,5.21-12.83-.45-16.19ZM13.74,24.96c-.71.39-2.29.98-3.08.98h-2.93l-.07-14.47c.02-.13.18-.13.29-.14,1.72-.16,4.52.24,6.03,1.1,4.44,2.56,4.2,10.1-.24,12.53ZM61.36,7.82l-7.21,15.41-6.99-15.41-3.83,20.64h2.7l2.07-12.53,6.17,13.07,5.95-13.07,2.12,12.53h2.79l-3.79-20.64Z"/>
  <polygon class="cls-1" points="43.33 28.46 47.16 7.82 54.15 23.23 61.36 7.82 65.14 28.46 62.35 28.46 60.23 15.93 54.28 29 48.11 15.93 46.04 28.46 43.33 28.46"/>
  <path class="cls-1" d="M15.6,10.36c-3.23-1.92-7.06-1.39-10.66-1.46v19.56c3.79-.02,7.87.4,11.11-1.91,5.27-3.75,5.21-12.83-.45-16.19ZM13.74,24.96c-.71.39-2.29.98-3.08.98h-2.93l-.07-14.47c.02-.13.18-.13.29-.14,1.72-.16,4.52.24,6.03,1.1,4.44,2.56,4.2,10.1-.24,12.53Z"/>
  <path class="cls-1" d="M131.03,20.39c5.74-.88,6.55-9.44.83-11.11-2.34-.68-5-.27-7.41-.39v19.56h2.79v-7.75l.77-.05,5.49,7.8h3.2l-5.68-8.07ZM127.25,18.36v-7.03h2.03c.78,0,2.34.49,2.93,1.03,1.44,1.32,1.07,4.26-.6,5.26-.5.3-1.86.74-2.42.74h-1.94Z"/>
  <polygon class="cls-1" points="37.29 8.9 37.29 11.33 29.27 11.33 29.27 16.65 36.89 16.65 37.02 16.78 37.02 19.04 36.89 19.17 29.27 19.17 29.27 26.02 37.2 26.02 37.2 28.46 26.48 28.46 26.48 8.9 37.29 8.9"/>
  <polygon class="cls-1" points="117.51 8.9 117.51 11.33 109.54 11.33 109.4 11.47 109.4 16.65 117.11 16.65 117.24 16.78 117.24 19.04 117.11 19.17 109.4 19.17 109.4 26.02 117.51 26.02 117.51 28.32 117.38 28.46 106.7 28.46 106.7 8.9 117.51 8.9"/>
  <polygon class="cls-1" points="82.54 8.9 82.54 11.33 74.65 11.33 74.52 11.47 74.52 16.65 82.27 16.65 82.27 19.04 82.13 19.17 74.52 19.17 74.52 25.89 74.65 26.02 82.54 26.02 82.54 28.46 71.81 28.46 71.81 8.9 82.54 8.9"/>
  <polygon class="cls-1" points="100.48 8.9 100.48 11.33 95.79 11.33 95.79 28.32 95.65 28.46 93 28.46 93 11.33 88.22 11.33 88.22 8.9 100.48 8.9"/>
  <polygon class="cls-1" points="62.26 40.17 62.26 34.77 63.19 34.78 63.34 34.99 63.25 42.7 57.66 36.93 57.66 42.43 56.67 42.43 56.67 34.41 62.26 40.17"/>
  <path class="cls-1" d="M39.73,38.46c.35,3.16-2.86,5.11-5.59,3.56-2.05-1.17-2.53-4.04-1.12-5.9,1.51-2,4.82-2.09,6.26.04l-.67.67c-2.18-2.83-6.42-.46-5.15,2.89,1,2.62,4.82,2.52,5.18-.36h-2.07v-.9h3.15Z"/>
  <path class="cls-1" d="M97.32,38.37c1.49-1.1.89-3.36-.95-3.6-.75-.1-1.7.07-2.48,0v7.66h2.66c.13,0,.87-.24,1.03-.32,1.64-.72,1.51-3.34-.27-3.74ZM94.89,35.67c1.11-.17,2.75.19,2.17,1.67-.08.21-.6.67-.77.67h-1.4v-2.34ZM97.32,41.11c-.15.13-.86.41-1.03.41h-1.4v-2.61h1.58s.51.18.59.22c.71.38.86,1.45.26,1.98Z"/>
  <path class="cls-1" d="M103.45,39.14c2.47-.32,2.4-4.04-.05-4.37-.78-.1-1.76.08-2.57,0v7.66h1.08v-3.24l.45.13,2.07,3.11h1.35l-2.34-3.29ZM101.92,38.37v-2.7c.98-.05,2.35.01,2.35,1.31,0,1.31-1.31,1.45-2.35,1.4Z"/>
  <path class="cls-1" d="M118.32,39.14c2.48-.32,2.43-4.04-.05-4.37-.78-.1-1.76.08-2.57,0v7.66c.24-.05.98.13,1.07-.15.04-1.02-.18-1.98.01-3.01l.54.13,1.98,3.02h1.35l-2.34-3.29ZM116.7,38.24v-2.43c.1-.31,1.44-.09,1.75.05.84.39.97,1.64.21,2.17-.45.32-1.49.51-1.96.21Z"/>
  <path class="cls-1" d="M20.71,39.22c-.05-.17.43-.21.6-.29,1.86-.97,1.35-3.88-.74-4.16-.78-.1-1.76.08-2.57,0v7.66h.99v-3.15l.48.02,2.17,3.05,1.31.08-2.25-3.2ZM19,38.24v-2.57c1.21-.08,2.75.11,2.39,1.72-.15.7-.99.95-1.63.99-.25.01-.6.06-.77-.14Z"/>
  <path class="cls-1" d="M44.5,39.23l1.12-.59c1.29-1.26.69-3.63-1.17-3.87-.78-.1-1.76.08-2.57,0v7.66h.99v-3.15l.52.02,2.09,3.09,1.26.04-2.25-3.2ZM42.88,38.37v-2.7c1.02-.04,2.41-.04,2.44,1.31.03,1.29-1.45,1.48-2.44,1.4Z"/>
  <path class="cls-1" d="M110.48,34.41l-3.69,8.02,1.13-.09.91-1.97,3.2.04.89,1.97,1.08.04-3.52-8.02ZM109.13,39.45l1.22-2.8.42.75c.22.7.63,1.34.8,2.04h-2.43Z"/>
  <path class="cls-1" d="M51.36,34.41l-3.52,8.02,1.09-.04c.16-.11.59-1.6.82-1.89.11-.14.14-.13.3-.15.88-.1,1.97.07,2.88.02l.98,2.04h1.16s-3.69-8.01-3.69-8.01ZM50.18,39.45l1.17-2.79c.06-.04.16.15.2.21.43.8.66,1.77,1.06,2.59h-2.43Z"/>
  <path class="cls-1" d="M27.6,34.41l-3.65,8.02h1.16s.82-2.02.82-2.02l3.2-.04.98,2.04h1.16s-3.65-8.01-3.65-8.01ZM26.39,39.45c.33-.82.65-1.81,1.06-2.59.03-.06.14-.25.2-.21l1.17,2.79h-2.43Z"/>
  <path class="cls-1" d="M78.21,34.77l.09.9h-3.33v2.07h3.15v.9h-3.15v2.75c0,.26.65.06.77.06.79.03,1.63.19,2.43,0,.22.05.21.87,0,.98h-4.19v-7.66h4.24Z"/>
  <path class="cls-1" d="M71.72,41.89c-2.53,1.63-6.15.1-6.31-3.02-.17-3.39,3.45-5.43,6.27-3.57l.04,1.26c-1.24-1.15-3.16-1.43-4.42-.14-2.29,2.35.41,6.53,3.58,4.75.31-.17.52-.45.84-.56v1.26Z"/>
  <path class="cls-1" d="M15.75,34.77v.9h-2.88l-.09,2.07h2.88v.99h-2.88l.08,3.55c-.09.27-.82.1-1.07.15v-7.66h3.97Z"/>
  <path class="cls-1" d="M124.09,39.14l-2.61-4.37,1.22.08c.65.9,1.12,2.15,1.77,3.01.06.08.08.18.21.15l1.85-3.25h1.26l-2.61,4.28v3.38h-1.08v-3.29Z"/>
  <polygon class="cls-1" points="85.51 34.77 85.51 41.44 88.22 41.44 88.22 42.43 84.43 42.43 84.43 34.77 85.51 34.77"/>
  <rect class="cls-1" x="90.2" y="34.77" width="1.08" height="7.66"/>
  <path class="cls-1" d="M130.67,34.4c-1.01,0-1.82.82-1.82,1.82s.82,1.82,1.82,1.82,1.82-.82,1.82-1.82-.82-1.82-1.82-1.82ZM130.67,37.73c-.83,0-1.5-.67-1.5-1.5s.67-1.5,1.5-1.5,1.5.67,1.5,1.5-.67,1.5-1.5,1.5Z"/>
  <path class="cls-1" d="M130.94,36.43c1.22-.87.03-1.41-.99-1.22v1.98h.36c.06-.17-.14-.86.14-.81.51.17.36,1.01,1.04.81l-.54-.77ZM130.31,36.12v-.63l.7.11c.13.16.08.34-.07.48l-.63.04Z"/>
</svg>