<?xml version="1.0" encoding="UTF-8"?>
<svg id="Glimmer_Goddes" data-name="Glimmer Goddes" xmlns="http://www.w3.org/2000/svg" viewBox="0 0 140 48">
  <defs>
    <style>
      .cls-1 {
        fill: #fff;
      }
    </style>
  </defs>
  <path class="cls-1" d="M74.09,5.81l.94-.57c1.68-.94,3.55-1.54,5.46-1.76.05.72.19,1.44.24,2.15.06.85.04,1.77-.04,2.62-.06.64-.21,1.28-.32,1.91,2.3.03,4.55.72,6.52,1.87-.39.6-.76,1.22-1.17,1.8-3.42,4.86-8.45,7.18-14.42,6.17-.25-.04-.73-.21-.94-.21-.38,0-1.26.28-1.74.34-2.91.36-5.84-.13-8.42-1.52-2.75-1.48-4.8-3.9-6.37-6.56l.06-.09c1.97-1.11,4.18-1.8,6.46-1.82-.12-.46-.21-.93-.28-1.39-.21-1.54-.18-3.62.12-5.14,0-.04.02-.14.06-.15,2.25.3,4.44,1.06,6.32,2.34.41-1.1.87-2.19,1.56-3.15.61-.85,1.36-1.5,2.23-2.07.24.21.53.38.78.58,1.48,1.17,2.4,2.87,2.94,4.65ZM72.52,11c-.31-1.88-.49-3.71-1.28-5.46-.18-.39-.52-1.1-.8-1.42-.04-.05-.06-.1-.14-.08-1.44,2.05-1.77,4.54-2.1,6.96-.08.01-.13-.07-.18-.12-.83-.9-1.63-1.97-2.6-2.71-.86-.66-1.88-1.16-2.9-1.51.03,1.1.12,2.2.42,3.26.33,1.18,1.06,2.19,1.55,3.3-1.65-.23-3.21-.6-4.89-.44-.64.06-1.3.19-1.91.38,1.65,2.08,3.87,3.64,6.49,4.22,1.59.35,3.31.37,4.91.06.24-.05,1.14-.35,1.26-.35.17,0,.78.25,1.03.3,1.64.37,3.51.36,5.15,0,2.58-.58,4.87-2.16,6.45-4.24-1.4-.38-2.76-.49-4.2-.32-.87.1-1.73.3-2.6.4.47-1.02,1.16-2,1.5-3.07s.48-2.34.47-3.49c-1.05.38-2.1.89-2.98,1.59-.99.79-1.74,1.89-2.66,2.75Z"/>
  <path class="cls-1" d="M73.84,30.82c1.76-.08,3.37.18,4.72,1.38,2.67,2.37,2.27,6.48-.89,8.21-2.23,1.22-4.37.62-6.75.7-.28,0-1.02.15-1.24.08-.11-.04-.08-.17,0-.24.22-.22.69.07.9-.51.28-.79.13-2.35.13-3.21,0-1.34.06-2.74,0-4.07-.01-.37-.04-1.02-.17-1.36-.19-.48-.79-.33-.9-.55-.08-.17.05-.22.2-.24.48-.06,1.13.07,1.65.04.77-.04,1.56-.2,2.35-.23ZM73.6,31.3c-.28.02-1.04.15-1.24.33-.05.05-.06.09-.08.16-.06.27-.07.75-.09,1.04-.08,1.88-.06,3.84,0,5.72.01.41-.08,1.46.2,1.73.42.39,1.91.46,2.48.43,2.11-.13,3.46-1.7,3.72-3.73.42-3.32-1.49-5.97-5-5.68Z"/>
  <g>
    <path class="cls-1" d="M57.59,40.96c.06-.11.61-.06.82-.29.19-.22.25-.89.27-1.18.1-1.99.06-4.41-.04-6.4-.02-.36.02-1.21-.24-1.48-.19-.2-.81-.16-.81-.41,0-.33.77-.14.99-.14,1.84.03,3.47-.45,5.35-.11,4.6.83,6.07,6.8,1.92,9.34-2.25,1.39-4.49.75-6.95.83-.19,0-1.21.16-1.29.04-.02-.04-.03-.16-.01-.2ZM61.56,31.3c-.26.02-1.21.16-1.3.43-.02.07-.04.23-.05.31-.21,1.97-.15,4.59-.09,6.6.01.39.01,1.04.09,1.4s.7.52,1.03.58c2.77.54,4.97-.83,5.32-3.68.4-3.3-1.51-5.92-5-5.64Z"/>
    <g>
      <path class="cls-1" d="M50.48,30.66c4.03-.21,6.74,3.46,5.33,7.26-1.76,4.74-8.95,4.51-10.38-.33-1.04-3.53,1.48-6.74,5.05-6.92ZM49.8,31.34c-3.58.34-3.76,4.76-2.13,7.22,2.16,3.25,6.79,2.7,7.05-1.49.18-2.89-1.72-6.04-4.92-5.73Z"/>
      <path class="cls-1" d="M42.35,30.82c.09.11.04.78.05.98.02.22.24,1.43.18,1.51-.02.03-.14.07-.17.07-.13,0-.32-.51-.4-.63-1.11-1.79-3.89-1.94-5.49-.74-2.73,2.03-2.17,7.14,1.04,8.41.91.36,2.21.37,3.12.02.51-.19.66-.29.71-.86s.06-2.12-.09-2.61c-.2-.63-1.16-.32-1.6-.45-.14-.04-.22-.23-.14-.35.08-.11.81,0,.97,0,.51.01,1.03,0,1.53,0s.95-.03,1.43-.04c.07.41-.23.29-.43.39s-.16.78-.17,1c-.04.74-.1,1.59-.04,2.33,0,.09.04.34.08.4.07.12.4.13.24.37-.06.09-.15.1-.24.12-1.93.49-4.67.81-6.54.05-3.84-1.57-4.27-6.61-.94-8.98,1.82-1.3,4.16-1.3,6.21-.6.21.01.48-.64.69-.39Z"/>
    </g>
  </g>
  <path class="cls-1" d="M89.44,30.81c-.17.55-.14,1.24-.3,1.77-.05.16-.13.37-.34.26-.16-.08.03-.57.02-.77-.02-.63-1.04-.68-1.53-.71-.97-.05-1.96.01-2.92.13-.07.05-.08,1.42-.08,1.63-.02.65-.13,1.62-.04,2.25.03.21.24.21.42.22.65.05,2.77.04,3.3-.21.47-.22.27-.77.48-.92.13-.09.21-.05.23.1.06.47-.11,1.23-.08,1.78,0,.24.14.98.06,1.15-.04.08-.14.1-.22.06-.21-.11-.15-1.1-.71-1.3s-2.38-.18-3.01-.13c-.28.02-.44,0-.46.3-.08.93.06,1.96,0,2.9l.08,1.15c1.06.13,2.09.22,3.16.07.82-.11,1.57-.4,2.02-1.12.14-.23.24-.7.52-.72.16.03-.06.88-.1,1.03-.13.51-.33.99-.53,1.47-.38,0-.76-.02-1.14-.03-2.03-.08-3.93-.02-5.96.04-.2,0-.67.09-.63-.18s.75-.21.88-.35c.15-.17.16-1.89.17-2.22.06-1.85.12-3.75.04-5.6-.02-.36.08-1.35-.36-1.49-.2-.06-.68,0-.73-.28-.04-.21.07-.27.26-.26.33,0,.74.11,1.09.12,1.45.07,3.05-.1,4.51-.12.64-.01,1.28.01,1.91,0Z"/>
  <g>
    <path class="cls-1" d="M98.37,30.77c-.06.54-.15,1.04-.11,1.58.01.14.17.76.07.82-.02.02-.22.01-.23,0-.02-.02-.1-.38-.12-.46-.38-1.06-1.25-1.57-2.36-1.63-1.98-.1-3.07,1.96-1.51,3.32,1.02.89,2.49,1.09,3.52,1.95,1.9,1.59,1.15,4.29-1.22,4.86-1.31.31-2.57-.02-3.85-.26-.23.1-.15.36-.51.27.06-.94-.21-1.84-.39-2.74.04-.06.24-.11.3-.08.04.03.24.82.32.99.19.42.42.64.83.87,1.29.72,4.14,1.02,4.3-1.03.24-3.05-5.24-2.34-5.28-5.6-.02-2.1,1.98-3.09,3.85-2.96.51.03,1.42.37,1.84.23.19-.06.35-.26.55-.15Z"/>
    <path class="cls-1" d="M106.92,33.18s-.16-.52-.2-.63c-.88-2.13-4.75-1.95-4.52.65.15,1.67,3.2,2.25,4.33,3.24,1.35,1.17,1.29,3.29-.21,4.3s-3.35.53-4.95.23c-.24.09-.14.35-.5.26,0-.9-.16-1.78-.4-2.64-.05-.14.26-.22.32-.17.04.04.23.85.32,1.03.72,1.55,4.92,2.17,5.12-.21.27-3.09-5.5-2.29-5.28-5.84.13-1.99,2.11-2.85,3.89-2.72.53.04,1.37.38,1.83.22.12-.04.5-.33.52-.04,0,.14-.11.5-.12.69-.02.25-.01.6,0,.85,0,.15.18.72.02.78-.04.01-.14.02-.17,0Z"/>
  </g>
  <g>
    <path class="cls-1" d="M64.86,22.24c.68,1.81,1.71,3.46,2.56,5.19.12,0,.38-.52.44-.64.82-1.47,1.51-3.02,2.29-4.51h1.78c.13.34-.36.23-.59.3-.32.09-.37.35-.4.65-.05.57,0,1.12,0,1.68,0,1.03-.07,2.29.13,3.29.05.24.08.43.33.52.22.07.64.02.53.36l-2.96.04c-.09-.32.32-.23.56-.31.32-.11.44-.41.49-.72.02-.18.04-.45.05-.64.06-1.33-.08-2.67-.04-4.01l-.66,1.17c-.82,1.37-1.36,2.88-2.04,4.32-.04.08-.06.18-.17.16l-2.78-5.64s-.06.18-.06.22c-.12,1.3-.27,3.15-.16,4.42.02.27.05.53.32.65.22.1.73.07.69.38h-2.5c0-.36.57-.27.8-.51.19-.19.26-.93.28-1.21.11-1.07.23-2.65.16-3.71-.04-.62-.09-1.09-.76-1.25-.16-.04-.51.02-.49-.22h2.21Z"/>
    <path class="cls-1" d="M75.66,22.24c.68,1.81,1.71,3.46,2.56,5.19.12,0,.38-.52.44-.64.82-1.47,1.5-3.02,2.29-4.51h1.78c.13.34-.36.23-.59.3-.33.1-.36.34-.4.65-.06.6,0,1.18,0,1.76,0,1.01-.06,2.23.13,3.21.05.24.08.43.33.52.22.07.64.02.53.36l-2.96.04c-.08-.32.3-.23.52-.3.34-.11.48-.39.52-.73.02-.2.04-.48.05-.68.06-1.32-.08-2.65-.04-3.97l-1.03,1.85c-.68,1.15-1.12,2.45-1.68,3.63-.04.08-.06.18-.17.16l-2.78-5.64s-.06.18-.06.22c-.13,1.27-.27,3.22-.16,4.46.02.26.06.49.32.61.22.1.73.07.69.38h-2.5c0-.36.57-.27.8-.51.19-.19.26-.93.28-1.21.1-.93.15-2.05.16-2.98,0-.5.06-1.46-.35-1.79-.29-.24-.72-.15-.86-.26-.06-.04-.04-.08-.04-.14h2.21Z"/>
    <path class="cls-1" d="M93.22,27.93s.04.07.04.12c.02.25-.04.67.26.79.04.02.7.11.47.26l-2.42.02c-.03-.29.36-.26.52-.46.12-.14.15-.5.16-.68.08-1.25.05-2.92,0-4.19,0-.22-.02-.51-.05-.72-.01-.11-.05-.29-.11-.38-.15-.24-.58-.08-.65-.28,0-.03-.02-.12,0-.13.02-.02.47,0,.55,0,1.19.03,2.61-.41,3.71.2,1.22.67,1.26,2.31.05,3-.13.08-.41.16-.48.21-.04.03-.05.05-.02.1.29.46.56.93.88,1.38.44.62,1.13,1.51,1.82,1.85.19.09.65.12.53.36-1.73.24-2.93-1.35-3.76-2.64-.18-.27-.35-.56-.49-.86l-1-.05c.03.69-.04,1.42,0,2.11ZM93.23,25.45c1.26.25,2.51-.05,2.37-1.59-.09-1.01-1.03-1.66-2.01-1.36-.31.09-.31.35-.33.64-.05.76.01,1.55-.04,2.31Z"/>
    <path class="cls-1" d="M89.6,22.19c-.07.21-.14,1.38-.34,1.4-.34-.15.13-.59-.25-.83s-1.73-.21-2.21-.17c-.08,0-.56.06-.58.08l-.09,1.5c.04.22-.06,1,.04,1.13.03.03.06.05.11.06.53-.02,1.09.03,1.61,0,.21-.01.74-.06.87-.22.1-.13.08-.68.32-.54.05.03-.04,1.01-.04,1.18,0,.24.05.53.08.77-.02.12-.15.2-.23.07-.15-.22-.07-.66-.41-.8-.15-.06-.56-.09-.74-.1-.22-.01-1.44-.02-1.55.05-.04.07-.04.14-.05.21-.06.84.04,1.76.06,2.6.96.17,2.73.33,3.37-.58.07-.1.29-.66.43-.55.12.09-.18,1.02-.24,1.19-.05.14-.11.29-.18.42l-5.14.02c-.16-.3.4-.23.52-.32.04-.03.05-.09.06-.14.16-.63.08-1.61.1-2.28.02-.94.09-1.91.04-2.86-.01-.2-.04-.64-.13-.8-.17-.28-.77-.04-.58-.47l5.14-.04Z"/>
    <g>
      <path class="cls-1" d="M48.92,22.2s.03.73.04.86c.02.17.16.71.08.81-.15.18-.32-.31-.41-.44-.47-.68-1.2-.95-2.02-.94-3.82.04-3.62,6.57.48,6.27.25-.02.97-.17,1.1-.39.04-.07.08-.38.08-.48.02-.28.03-1.57-.13-1.74-.06-.06-.33-.12-.42-.13-.23-.02-.78.1-.68-.25l2.6-.02c.17.24-.27.19-.33.29-.03.04-.07.4-.08.48-.03.42-.06,1.42,0,1.81.04.22.5.36,0,.49-2.18.59-5.45.6-6.26-2.01-.98-3.14,1.92-5.11,4.82-4.53.2.04.61.24.77.12.03-.02.23-.37.34-.2Z"/>
      <path class="cls-1" d="M56.4,28.22c.08-.09.23-.57.26-.59.07-.04.18,0,.2.1.04.29-.35.99-.37,1.32l-.06.06h-5.08c-.15-.26.26-.24.42-.31.23-.1.26-.24.29-.48.13-1.18,0-2.89-.04-4.1,0-.25.02-.51,0-.77-.01-.19-.04-.62-.1-.79-.08-.24-.57-.17-.62-.24-.02-.03,0-.15.03-.18.06-.05.93.07,1.11.07.37,0,.99-.13,1.33-.08.05,0,.12,0,.14.06.06.17-.32.18-.42.22-.28.1-.38.16-.42.47-.14,1.18-.03,2.58,0,3.78,0,.32-.06,1.61.1,1.79.06.07.23.11.32.12.67.08,1.96-.01,2.58-.27.07-.03.28-.13.32-.18Z"/>
    </g>
    <path class="cls-1" d="M61.13,29.12c-.73,0-1.46-.06-2.2-.04-.14,0-.73.13-.78-.02-.02-.05.01-.23.04-.25.14-.09.67.03.84-.19.09-.11.15-.6.16-.76.08-1.21.06-2.9,0-4.11-.01-.24-.07-.87-.2-1.05-.21-.27-.65-.11-.81-.24-.09-.08-.03-.22.07-.25.2-.06.64.06.88.07.28.01.61.01.89,0s.71-.12.97-.08c.15.02.21.1.07.2-.36.26-.63-.08-.77.64-.22,1.09-.08,2.71-.09,3.86,0,.48-.1,1.16.06,1.63.21.59.93-.04.87.6Z"/>
  </g>
  <path class="cls-1" d="M111.11,39.95c0,.76-.61,1.37-1.37,1.37s-1.37-.61-1.37-1.37.61-1.37,1.37-1.37,1.37.61,1.37,1.37ZM110.92,39.95c0-.65-.53-1.17-1.17-1.17s-1.17.53-1.17,1.17.53,1.17,1.17,1.17,1.17-.53,1.17-1.17Z"/>
  <g>
    <path class="cls-1" d="M59.96,46.61c-.03.19-.41.19-.4-.04.04-.92-.07-1.91,0-2.82.02-.22.04-.26.28-.21.64.83,1.28,1.67,1.98,2.45v-2.36s.33-.21.36.12c.08.91-.06,1.94,0,2.86,0,.13-.11.24-.23.14l-1.99-2.46v2.32Z"/>
    <path class="cls-1" d="M50.43,43.57c.34.05.72.42.78.75.1.57-.19.87-.63,1.16.1.21.64,1.03.61,1.2-.02.09-.33.09-.42-.02-.21-.23-.37-.9-.61-1.17h-.79v1.15c0,.12-.4.12-.4,0v-3.02s.06-.06.06-.06c.41,0,1.03-.05,1.41,0ZM49.36,45.18h.95s.29-.13.34-.18c.27-.26.23-.72-.06-.95-.03-.02-.19-.12-.2-.12h-1.03v1.25Z"/>
    <path class="cls-1" d="M80.3,45.99v-2.36c0-.09.36-.09.36,0v3.06c0,.06-.17.14-.23.05l-1.95-2.48-.08.02s.04.07.04.08v2.29c0,.11-.36.1-.36.06v-3.12c0-.06.21-.1.26-.02l1.95,2.41Z"/>
    <path class="cls-1" d="M47.88,45.15c0,.9-.73,1.63-1.63,1.63s-1.63-.73-1.63-1.63.73-1.63,1.63-1.63,1.63.73,1.63,1.63ZM47.53,45.15c0-.71-.57-1.28-1.28-1.28s-1.28.57-1.28,1.28.57,1.28,1.28,1.28,1.28-.57,1.28-1.28Z"/>
    <path class="cls-1" d="M54.92,46.37c-.06.26-.96.43-1.19.42-2.21-.03-2.12-3.5.24-3.26.28.03,1.26.42.7.71-.09.05-.15-.09-.23-.14-.35-.21-.69-.31-1.09-.18-1.32.43-1.08,2.61.61,2.47.08,0,.54-.1.54-.18v-.58h-.56s-.08-.36.06-.36h.87s.04.09.04.1c0,.25.05.8,0,1.01Z"/>
    <path class="cls-1" d="M73.61,44.9l1.33-1.27c.13-.1.55-.12.4.12-.15.16-1.39,1.22-1.37,1.32.16.28,1.44,1.38,1.45,1.58,0,.13-.33.13-.4.04l-1.41-1.43v1.35c0,.19-.4.14-.4.04v-2.98c0-.18.4-.1.4,0v1.23Z"/>
    <path class="cls-1" d="M57.98,45.95h-1.58c-.09.02-.28,1.16-.7.7l1.43-3.12s.09,0,.13.02c.17.09,1.17,2.68,1.4,3.03.03.19-.24.22-.36.11-.09-.09-.28-.71-.33-.74ZM57.82,45.63l-.6-1.41s-.1.12-.12.15c-.14.28-.42.86-.51,1.14-.01.04-.03.08-.02.12h1.25Z"/>
    <path class="cls-1" d="M67.64,43.91c.11.13-.03.33-.13.35-.04,0-.47-.32-.72-.36-2.01-.27-1.79,2.92.07,2.48.18-.04.58-.32.65-.31.11,0,.23.17.16.28-.03.06-.38.27-.46.3-.82.34-1.78-.03-2.13-.85-.53-1.26.53-2.49,1.85-2.25.16.03.61.24.71.36Z"/>
    <g>
      <path class="cls-1" d="M92.2,43.57c.2.03.48.24.61.4.39.53.12,1.25-.47,1.47.17.42.49.81.61,1.24-.11.1-.32.09-.42-.02-.21-.23-.37-.9-.61-1.17h-.79v1.11c0,.19-.4.14-.4.04v-3.02s.06-.06.06-.06c.4,0,1.05-.06,1.41,0ZM91.13,45.18h.95c.06,0,.31-.15.36-.21.24-.26.19-.74-.1-.94-.03-.02-.2-.1-.22-.1h-.99v1.25Z"/>
      <path class="cls-1" d="M94.51,43.89v1.05h1.27c.13,0,.13.36,0,.36h-1.27v1.09h1.51s.19.32-.08.36c-.35.04-1.26.04-1.61,0-.08,0-.15-.02-.2-.08l.02-3.1h1.87c.08,0,.08.32,0,.32h-1.51Z"/>
      <path class="cls-1" d="M87.55,45.95c-.17.26-.24,1.03-.67.72v-.08s1.39-3.04,1.39-3.04c.04-.03.09-.03.14-.01.16.05,1.23,2.77,1.43,3.12-.46.43-.53-.63-.74-.7h-1.54ZM89,45.63l-.68-1.41-.6,1.41h1.29Z"/>
      <path class="cls-1" d="M84.72,43.54c.42-.06.93.02,1.25.3.1.09.17.15.1.3-.11.25-.27.02-.39-.05-.61-.33-1.33-.27-1.71.36-.62,1.01.27,2.26,1.42,1.91.18-.06.55-.42.68-.2.15.25-.39.5-.58.55-1.41.43-2.63-1.03-1.93-2.34.21-.39.71-.76,1.15-.82Z"/>
    </g>
    <path class="cls-1" d="M70.9,43.54c.21-.04,1.08.03,1.1.29.04.46-.47.08-.65.05-.44-.09-.88.12-.75.63.12.46,1.41.53,1.55,1.23.16.79-.65,1.17-1.32,1-.14-.04-.63-.26-.64-.41,0-.09.15-.27.22-.26.03,0,.36.27.53.32.45.13.98-.06.81-.61-.12-.39-1.13-.54-1.41-.97-.32-.49,0-1.18.57-1.28Z"/>
    <rect class="cls-1" x="63.46" y="43.57" width=".4" height="3.18"/>
    <rect class="cls-1" x="76.39" y="43.57" width=".36" height="3.19"/>
  </g>
  <path class="cls-1" d="M110,39.14c.59.1.52.73-.06.78.09.08.22.14.28.25.05.1.08.52.25.42.02-.01.03-.37.16-.24.08.08-.1.49-.44.38s-.02-.89-.64-.75c.02.15-.07.51.08.58.1.05.19-.04.16.14h-.77c-.04-.19.09-.08.19-.16.06-.05.05-.11.06-.18.02-.18.03-.8,0-.97-.04-.23-.29-.05-.24-.26.3.04.7-.05.99,0ZM109.54,39.87c.5.15.82-.55.26-.61-.43-.04-.22.31-.26.61Z"/>
</svg>