<?xml version="1.0" encoding="UTF-8"?>
<svg id="GOVINO" xmlns="http://www.w3.org/2000/svg" viewBox="0 0 140 48">
  <defs>
    <style>
      .cls-1 {
        fill: #fff;
      }
    </style>
  </defs>
  <path class="cls-1" d="M20.23,34.96c-1.68,1.71-3.8,3.27-7.68,3.27-6.39,0-11.03-4.55-11.03-11.35s4.79-11.51,12.14-11.51c5.44,0,10.81,2.53,11.6,8.42l-7.73.03c-.37-.8-1.72-1.81-3.75-1.82-2.86-.01-4.68,1.82-4.68,4.81s1.84,4.92,4.53,4.92c1.29,0,2.63-.45,3.4-1.61.05-.08.09-.19.09-.28,0-.18-.1-.25-.32-.25h-2.61v-4.08h11.07v12.02h-4.46v-2.45c0-.18-.08-.31-.24-.31-.09,0-.18.04-.33.2h0ZM49.85,16.08h8.08l4.72,13.91c.1.29.24.42.47.42.24,0,.37-.13.47-.42l4.65-13.91h7.61l-7.73,21.43h-10.53l-7.75-21.43h0ZM76.81,16.08h7.7v21.43h-7.7v-21.43ZM86.94,16.08h8.44l6.88,9.98c.13.19.25.28.43.28.17,0,.33-.09.33-.41v-9.85h7.14v21.43h-8.13l-7.18-10.13c-.12-.17-.24-.31-.43-.31-.23,0-.34.18-.34.42v10.01h-7.14v-21.43h0ZM38.91,38.23c-7.47,0-12.24-4.52-12.24-11.43s4.77-11.43,12.24-11.43,12.26,4.52,12.26,11.43-4.77,11.43-12.26,11.43h0ZM38.91,31.45c2.51,0,4.65-1.62,4.65-4.66s-2.14-4.66-4.65-4.66-4.65,1.62-4.65,4.66,2.17,4.66,4.65,4.66ZM123.81,38.23c-7.47,0-12.24-4.52-12.24-11.43s4.77-11.43,12.24-11.43,12.26,4.52,12.26,11.43-4.77,11.43-12.26,11.43ZM123.81,31.45c2.51,0,4.65-1.62,4.65-4.66s-2.14-4.66-4.65-4.66-4.65,1.62-4.65,4.66,2.17,4.66,4.65,4.66Z"/>
  <path class="cls-1" d="M136.77,19.24c-1.01,0-1.7-.68-1.7-1.69s.69-1.71,1.7-1.71,1.7.69,1.7,1.71-.69,1.69-1.7,1.69ZM136.77,18.89c.81,0,1.35-.54,1.35-1.34s-.54-1.37-1.35-1.37-1.34.56-1.34,1.37.53,1.34,1.34,1.34ZM136.44,18.52h-.36v-1.93h.79c.4,0,.7.24.7.61,0,.25-.13.49-.42.57l.4.75h-.41l-.35-.7h-.36v.7h0ZM136.44,17.51h.44c.2,0,.33-.09.33-.29,0-.21-.13-.31-.36-.31h-.41v.6Z"/>
</svg>