<?xml version="1.0" encoding="UTF-8"?>
<svg id="Kai" xmlns="http://www.w3.org/2000/svg" viewBox="0 0 140 48">
  <defs>
    <style>
      .cls-1 {
        fill: #fff;
      }
    </style>
  </defs>
  <g>
    <path class="cls-1" d="M45.53,26.93c.18.04.21-.07.32-.15,1.19-.89,2.93-2.56,4.05-3.62,1.95-1.84,3-3.44-.9-3.47v-1.33h11.13l-.1,1.28c-2.75.01-4.72,1.2-6.73,2.85-.99.81-2.11,1.79-3.05,2.65-.29.27-.66.57-.84.92,0,.09,1.04,1.2,1.21,1.38,2.3,2.47,4.93,5.46,7.4,7.7,1.17,1.06,2.43,1.91,4.09,1.99v1.22s-6.45,0-6.45,0l-1.47-1.32-7.98-8.57c-.32.13-.64.43-.69.76-.15,1.06-.07,3.91.14,4.98.46,2.4,1.96,2.87,4.28,2.93v1.22h-13.24v-1.22c2.73,0,4.14-.7,4.5-3.43-.04-7.95.45-16.01.12-23.96-.05-1.2-.15-3.44-.97-4.36s-2.39-.95-3.56-1.03l-.1-1.11,8.57-1.51s.26.34.26.37v24.83Z"/>
    <g>
      <path class="cls-1" d="M83.92,35.8c-.38.19-.62.55-1.03.73-1.63.72-2.18-.7-2.28-2-.32-4,1.03-11.64-1.48-14.77-2.65-3.31-10.8-3.04-13.37.25-1.3,1.66-1.1,4.51,1.56,4.16,2.09-.28,1.22-2.98,2.32-4.07.98-.96,3.42-1.05,4.64-.53,2.19.93,2,3.94,2.14,5.87-4.83,1.36-13.28,2.73-12.61,9.29.21,2.06,2.04,3.72,4.07,4.11,3.4.64,6.29-1.18,8.64-3.34.64,4.25,5.77,4.37,8.18,1.46l-.78-1.16ZM76.41,33.41c-1.54,1.58-4.69,3.96-6.97,2.48-1.25-.8-1.45-2.64-1.05-3.94.85-2.73,5.44-4.08,8.01-4.61v6.07Z"/>
      <g>
        <path class="cls-1" d="M86.92,38.35v-1.22c2.2-.05,3.9-.38,4.38-2.73.53-2.59.27-6.67.13-9.35-.07-1.26.1-3-.78-4.03-.8-.94-2.55-1.05-3.73-1.02v-1.22s8.36-1.43,8.36-1.43c.36-.02.44.28.47.56.22,4.89-.29,10.03,0,14.89.05.78.19,1.85.51,2.56.68,1.51,2.51,1.72,4.01,1.76v1.22h-13.34Z"/>
        <ellipse class="cls-1" cx="93.64" cy="9" rx="2.77" ry="2.69"/>
      </g>
    </g>
  </g>
  <g>
    <path class="cls-1" d="M47.7,43.13c-.22,0-.51-.31-.95-.28-1.12.08-1.49,1.33-.59,1.99-1.71,1.41,1.25,1.18,1.59,1.62.53.71-1.14,1.2-1.74.56-.35-.37.16-.71.05-.81-.32-.07-.61.28-.63.57-.08,1.12,2.95,1.22,2.95-.21,0-1.24-1.64-.79-2.11-1.12-.63-.46.74-.45.95-.5.82-.19.96-1,.73-1.69l.73.3c.1-1.11-.67-.41-.98-.43ZM47.15,44.66c-1.01.34-1.13-1.31-.49-1.5.94-.28.96,1.34.49,1.5Z"/>
    <path class="cls-1" d="M39.36,42.97c-.59-.22-.85-.04-1.39.17v-2.24l-1.26.2c-.08.33.23.14.42.25.05.03.21.27.21.31v4.03c.25.03.4-.21.42-.41,1.91,1.7,3.52-1.6,1.59-2.31ZM39.05,45.37c-1.45.43-1.31-1.92-.69-2.1,1.55-.44,1.36,1.9.69,2.1Z"/>
    <path class="cls-1" d="M41.86,42.94l-.32.45.69,1.38c.17-.5.98-1.42.26-1.68-.02-.2.74-.16.89-.15s.3-.08.26.15c-.14.15-.34.19-.47.36-.66.92-1,2.97-1.65,3.91-.25.37-.77.4-.68-.05.04-.2.33-.27.47-.46.17-.24.55-1.03.53-1.3s-.72-1.67-.92-1.97c-.2-.31-.51-.28-.44-.64h1.37Z"/>
    <path class="cls-1" d="M70.42,43.61c-.17-1.02-1.97-1-2.19-.02.57.62.52-.16.77-.35.62-.48,1.11.57.67.75-.53.22-1.65.21-1.55,1.13.12,1.16,1.53.24,1.72.28.11.02.2.23.35.27.32.1.77,0,.76-.39-.86.39-.44-1.11-.53-1.68ZM68.9,45.3c-.48-.61.33-1.01.9-1.03v.77c-.23.16-.62.48-.9.26Z"/>
    <path class="cls-1" d="M53.31,43.14l-.42.16.63,1.47c.11.08.75-1.34.74-1.47,0-.11-.41-.1-.32-.37h1.05s0,.3,0,.3c-.09.02-.23,0-.3.06-.54.4-1.3,3.65-2,4.28l-.42.05c-.21-.39.21-.47.4-.78.14-.22.64-1.1.62-1.29-.01-.14-.91-1.98-1.04-2.14-.11-.15-.28-.2-.4-.32-.01-.19,1.35-.3,1.47.05Z"/>
    <path class="cls-1" d="M76.62,45.39c-.05-.91.33-2.45-1.01-2.55-.77-.05-1.86.85-.68.91l.21-.56c.56-.21,1,.12.85.7-.03.13-2.33.34-1.59,1.55.42.69,1.33-.06,1.63-.06.06,0,.05.19.18.24.33.14.7.13.92-.18l-.52-.05ZM75.39,45.37c-.98.14-.29-1.3.6-1.1.06.54.05,1.01-.6,1.1Z"/>
    <path class="cls-1" d="M51.3,43.61c-.18-1.1-2.09-.85-2.16-.11-.02.18.23.39.38.31.27-.13.15-.76.78-.67.35.05.44.47.48.76-.01.14-1.79.17-1.79,1.13,0,1.25,1.61.35,1.72.37.15.03.52.58,1.05.2l.06-.32c-.86.39-.44-1.11-.53-1.68ZM49.68,45.19c-.3-.47.67-.99,1.11-.92.34.66-.75,1.48-1.11.92Z"/>
    <path class="cls-1" d="M55.93,44.17h1.84c.4,0,.06-1.18-.87-1.31-1.9-.25-2.39,2.94-.07,2.84.4-.02,1.02-.13,1.1-.62-.3,0-.49.26-.8.3-.8.11-1.31-.47-1.2-1.22ZM57.3,43.86l-1.37-.05c.21-.76,1.42-.89,1.37.05Z"/>
    <path class="cls-1" d="M73.53,42.94l.11.21c-.13.32-1.62,2.06-1.42,2.24.32,0,.8.05,1.09-.12s.14-.5.38-.59v.92s-2.41,0-2.41,0l1.57-2.3c-.28-.09-.76-.09-1.03.02-.24.1-.17.47-.44.54.03-.31-.12-.7.16-.92h2Z"/>
    <path class="cls-1" d="M62.13,42.84v1.02c-.28-.14-.24-.59-.6-.7-.31-.09-.6.03-.67.34,0,.36,1.21.67,1.38.94.32.53.02,1.13-.57,1.28s-.95-.36-1.32-.02c-.08-.24-.24-1,.05-1.12.14.44.62,1.1,1.18.84.9-.42-.51-.9-.74-1.07-.96-.66-.23-1.64.59-1.5.29.05.35.34.71-.02Z"/>
    <path class="cls-1" d="M65.18,45.59c.04-.23.38-.17.48-.3.08-.11.09-1.58.03-1.77-.11-.36-.56-.12-.51-.48l.9-.18.2.49c.5-.68,1.76-.71,1.37.31-.56.31-.35-.43-.82-.39-.6.05-.62,1.77-.4,2.06.11.14.48,0,.54.27h-1.79Z"/>
    <path class="cls-1" d="M63.81,45.13c.1.61.88,0,.94.05-.02.53-.99.66-1.32.42-.43-.32-.19-1.84-.25-2.36-.98-.03-.14-.22.05-.41.15-.16.3-.81.42-.81.31.15.08.95.16,1.02l.73.05c.11.28-.63.11-.73.15.07.58-.09,1.33,0,1.89Z"/>
  </g>
</svg>