<?xml version="1.0" encoding="UTF-8"?>
<svg id="Lifefactory" xmlns="http://www.w3.org/2000/svg" viewBox="0 0 140 48">
  <defs>
    <style>
      .cls-1 {
        fill: #fff;
      }
    </style>
  </defs>
  <path class="cls-1" d="M17,33.9c-1.63,0-2.96,1.33-2.96,2.96s1.33,2.96,2.96,2.96,2.96-1.32,2.96-2.96-1.32-2.96-2.96-2.96ZM25.62,30.24c-1.63,0-2.95,1.32-2.95,2.95s1.32,2.94,2.95,2.94,2.94-1.32,2.94-2.94-1.32-2.95-2.94-2.95ZM8.4,30.23c-1.63,0-2.95,1.32-2.95,2.95s1.32,2.95,2.95,2.95,2.95-1.32,2.95-2.95-1.32-2.95-2.95-2.95ZM19.66,29.39c-.93,0-1.68.75-1.68,1.68s.75,1.68,1.68,1.68,1.68-.75,1.68-1.68-.75-1.68-1.68-1.68ZM14.36,29.39c-.93,0-1.68.75-1.68,1.68s.75,1.68,1.68,1.68,1.68-.75,1.68-1.68-.75-1.68-1.68-1.68ZM30.79,30.42c.87-.69-.12-1.08-.89-.93v1.59h.36v-.57s.22-.05.22-.05c.2.28.22.74.67.62l-.36-.66ZM30.26,30.19v-.44c.74-.1.72.54,0,.44ZM30.79,30.42c.87-.69-.12-1.08-.89-.93v1.59h.36v-.57s.22-.05.22-.05c.2.28.22.74.67.62l-.36-.66ZM30.26,30.19v-.44c.74-.1.72.54,0,.44ZM30.5,28.84c-.8,0-1.46.65-1.46,1.45s.65,1.46,1.46,1.46,1.45-.65,1.45-1.46-.65-1.45-1.45-1.45ZM30.48,31.47c-1.48,0-1.42-2.1-.33-2.32,1.88-.38,2.03,2.32.33,2.32ZM29.9,29.49v1.59h.36v-.57s.22-.05.22-.05c.2.28.22.74.67.62l-.36-.66c.87-.69-.12-1.08-.89-.93ZM30.26,30.19v-.44c.74-.1.72.54,0,.44ZM23.4,25.58c-.92,0-1.67.75-1.67,1.67s.74,1.67,1.67,1.67,1.67-.74,1.67-1.67-.75-1.67-1.67-1.67ZM10.61,25.58c-.92,0-1.67.75-1.67,1.67s.75,1.67,1.67,1.67,1.68-.75,1.68-1.67-.75-1.67-1.68-1.67ZM132.89,22.3c-.27,0-.55-.22-.75.04l-3.32,7.41-3.37-7.54h-1.99l4.25,9.81c-.74,1.58-1.34,4.81-3.77,3.5l-.54,1.6c1.93,1.18,3.98.25,4.85-1.72l5.93-13.14c-.43-.03-.85.05-1.29.05ZM43.74,22.23v10.53h1.95v-10.53h-1.95ZM137.02,22.87c-.29-.32-.71-.13-1.07-.13v1.46c.6.46.11-.66.49-.58l.53.71c.32-.19-.12-.49-.11-.66.01-.14.54-.37.16-.8ZM136.26,23.01c.19-.27.79,0,.57.35-.13.21-.88.08-.57-.35ZM137.02,22.87c-.29-.32-.71-.13-1.07-.13v1.46c.6.46.11-.66.49-.58l.53.71c.32-.19-.12-.49-.11-.66.01-.14.54-.37.16-.8ZM136.26,23.01c.19-.27.79,0,.57.35-.13.21-.88.08-.57-.35ZM137.02,22.87c-.29-.32-.71-.13-1.07-.13v1.46c.6.46.11-.66.49-.58l.53.71c.32-.19-.12-.49-.11-.66.01-.14.54-.37.16-.8ZM136.26,23.01c.19-.27.79,0,.57.35-.13.21-.88.08-.57-.35ZM137.02,22.87c-.29-.32-.71-.13-1.07-.13v1.46c.6.46.11-.66.49-.58l.53.71c.32-.19-.12-.49-.11-.66.01-.14.54-.37.16-.8ZM136.26,23.01c.19-.27.79,0,.57.35-.13.21-.88.08-.57-.35ZM137.02,22.87c-.29-.32-.71-.13-1.07-.13v1.46c.6.46.11-.66.49-.58l.53.71c.32-.19-.12-.49-.11-.66.01-.14.54-.37.16-.8ZM136.26,23.01c.19-.27.79,0,.57.35-.13.21-.88.08-.57-.35ZM137.02,22.87c-.29-.32-.71-.13-1.07-.13v1.46c.6.46.11-.66.49-.58l.53.71c.32-.19-.12-.49-.11-.66.01-.14.54-.37.16-.8ZM136.26,23.01c.19-.27.79,0,.57.35-.13.21-.88.08-.57-.35ZM136.54,22.07c-.8,0-1.44.65-1.44,1.44s.64,1.44,1.44,1.44,1.44-.64,1.44-1.44-.65-1.44-1.44-1.44ZM136.53,24.68c-.65,0-1.17-.53-1.17-1.18s.52-1.18,1.17-1.18,1.18.53,1.18,1.18-.52,1.18-1.18,1.18ZM137.02,22.87c-.29-.32-.71-.13-1.07-.13v1.46c.6.46.11-.66.49-.58l.53.71c.32-.19-.12-.49-.11-.66.01-.14.54-.37.16-.8ZM136.83,23.36c-.13.21-.88.08-.57-.35.19-.27.79,0,.57.35ZM137.02,22.87c-.29-.32-.71-.13-1.07-.13v1.46c.6.46.11-.66.49-.58l.53.71c.32-.19-.12-.49-.11-.66.01-.14.54-.37.16-.8ZM136.26,23.01c.19-.27.79,0,.57.35-.13.21-.88.08-.57-.35ZM137.02,22.87c-.29-.32-.71-.13-1.07-.13v1.46c.6.46.11-.66.49-.58l.53.71c.32-.19-.12-.49-.11-.66.01-.14.54-.37.16-.8ZM136.26,23.01c.19-.27.79,0,.57.35-.13.21-.88.08-.57-.35ZM137.02,22.87c-.29-.32-.71-.13-1.07-.13v1.46c.6.46.11-.66.49-.58l.53.71c.32-.19-.12-.49-.11-.66.01-.14.54-.37.16-.8ZM136.26,23.01c.19-.27.79,0,.57.35-.13.21-.88.08-.57-.35ZM137.02,22.87c-.29-.32-.71-.13-1.07-.13v1.46c.6.46.11-.66.49-.58l.53.71c.32-.19-.12-.49-.11-.66.01-.14.54-.37.16-.8ZM136.26,23.01c.19-.27.79,0,.57.35-.13.21-.88.08-.57-.35ZM137.02,22.87c-.29-.32-.71-.13-1.07-.13v1.46c.6.46.11-.66.49-.58l.53.71c.32-.19-.12-.49-.11-.66.01-.14.54-.37.16-.8ZM136.26,23.01c.19-.27.79,0,.57.35-.13.21-.88.08-.57-.35ZM137.02,22.87c-.29-.32-.71-.13-1.07-.13v1.46c.6.46.11-.66.49-.58l.53.71c.32-.19-.12-.49-.11-.66.01-.14.54-.37.16-.8ZM136.26,23.01c.19-.27.79,0,.57.35-.13.21-.88.08-.57-.35ZM120.12,22.21c-.91.31-1.2.75-1.71,1.48-.05.08.01.17-.2.12-.07-.05.15-1.43-.13-1.6h-1.56v10.55h1.86c.07-1.65-.09-3.37,0-5.01.08-1.46.28-3.17,1.87-3.72.69-.24,1.26-.1,1.95-.08l.33-1.6c-.1-.53-1.99-.29-2.42-.15ZM109.27,22.02c-3.03,0-5.49,2.46-5.49,5.49s2.46,5.5,5.49,5.5,5.5-2.46,5.5-5.5-2.46-5.49-5.5-5.49ZM109.39,31.26c-4.42.2-4.86-6.87-.77-7.43,5.27-.71,5.53,7.22.77,7.43ZM92.02,30.04c-2.63,2.63-6.63.66-6.24-3.07.3-2.87,3.75-4.21,5.93-2.32.1.09.17.29.18.3.18.1,1.28-.86,1.37-1.05.15-.33-.62-.83-.87-.99-4.15-2.75-9.39.86-8.45,5.79.86,4.45,6.52,5.83,9.44,2.51.03-.2-1.13-1.02-1.37-1.16ZM79.92,22.3l-.18,1.51c-1.77-2.52-5.79-2.29-7.66,0-2.67,3.28-.92,8.92,3.54,9.21,1.17.07,2.69-.33,3.55-1.15.2-.19.35-.54.57-.71l.18,1.59h1.68v-10.55l-1.68.09ZM77.08,31.13c-5.1,1.26-5.97-7.24-.99-7.39,4.24-.12,4.93,6.41.99,7.39ZM49.23,28.11c.29,4,4.42,5.98,7.96,4.4.74-.33,1.67-1.02,1.97-1.78l-1.36-.88c-2.15,2.52-6.47,1.58-6.62-1.96h8.42c.56-7.93-10.95-7.83-10.38.22ZM51.27,26.38c.56-3.49,5.9-3.64,6.3,0h-6.3ZM29.11,21.62c-1.63,0-2.94,1.32-2.94,2.94s1.32,2.94,2.94,2.94,2.94-1.32,2.94-2.94-1.32-2.94-2.94-2.94ZM4.9,21.62c-1.63,0-2.94,1.32-2.94,2.94s1.32,2.94,2.94,2.94,2.94-1.32,2.94-2.94-1.32-2.94-2.94-2.94ZM23.41,20.2c-.93,0-1.68.75-1.68,1.67s.75,1.68,1.68,1.68,1.67-.75,1.67-1.68-.75-1.67-1.67-1.67ZM10.6,20.2c-.93,0-1.68.75-1.68,1.68s.75,1.68,1.68,1.68,1.68-.75,1.68-1.68-.75-1.68-1.68-1.68ZM44.72,17.01c-.78,0-1.41.63-1.41,1.41s.63,1.41,1.41,1.41,1.41-.63,1.41-1.41-.63-1.41-1.41-1.41ZM19.64,16.46c-.93,0-1.68.75-1.68,1.68s.75,1.68,1.68,1.68,1.68-.75,1.68-1.68-.75-1.68-1.68-1.68ZM14.36,16.47c-.93,0-1.68.75-1.68,1.68s.75,1.68,1.68,1.68,1.68-.75,1.68-1.68-.75-1.68-1.68-1.68ZM102.66,30.46c-.99.9-2.73,1.17-3.54-.09-.07-.12-.32-.75-.32-.84v-5.45h3.63v-1.78h-3.63v-6.56h-1.86v6.42l-.13.13h-2.17v1.64l.13.13h2.17c.27,2.26-.69,5.88.84,7.71,1.26,1.52,3.81,1.61,5.36.48l.54-.52-1.02-1.29ZM39.3,30.42c-.03-.08-.17-.59-.17-.63v-14.05h-1.86v14.76c0,.25.36,1.11.52,1.35.39.59,1.14.93,1.83,1,.21.02,1.28.07,1.28-.22v-1.56c-.66.03-1.33.04-1.6-.66ZM63.69,19.33c-.09.91.07,1.96,0,2.88l-2.57.09v1.78h2.57v8.69h1.82l.13-.13v-8.56h4.17v-1.73c-.29-.29-.73-.05-1.1-.04-1,.03-2.08.03-3.06-.09v-2.88c0-.07.22-.68.28-.79.62-1.26,2.27-1.43,3.47-1.01.22.08,1.01.59,1.12.51l.77-1.51c-2.76-2.08-7.21-.98-7.59,2.79ZM25.63,12.96c-1.63,0-2.96,1.32-2.96,2.95s1.32,2.95,2.96,2.95,2.95-1.32,2.95-2.95-1.32-2.95-2.95-2.95ZM8.37,12.96c-1.63,0-2.96,1.32-2.96,2.95s1.32,2.95,2.96,2.95,2.95-1.32,2.95-2.95-1.32-2.95-2.95-2.95ZM17.01,9.44c-1.63,0-2.95,1.32-2.95,2.95s1.32,2.94,2.95,2.94,2.95-1.32,2.95-2.94-1.32-2.95-2.95-2.95Z"/>
  <path class="cls-1" d="M79.92,22.3l-.18,1.51c-1.77-2.52-5.79-2.29-7.66,0-2.67,3.28-.92,8.92,3.54,9.21,1.17.07,2.69-.33,3.55-1.15.2-.19.35-.54.57-.71l.18,1.59h1.68v-10.55l-1.68.09ZM77.08,31.13c-5.1,1.26-5.97-7.24-.99-7.39,4.24-.12,4.93,6.41.99,7.39Z"/>
  <path class="cls-1" d="M49.23,28.11c.29,4,4.42,5.98,7.96,4.4.74-.33,1.67-1.02,1.97-1.78l-1.36-.88c-2.15,2.52-6.47,1.58-6.62-1.96h8.42c.56-7.93-10.95-7.83-10.38.22ZM51.27,26.38c.56-3.49,5.9-3.64,6.3,0h-6.3Z"/>
  <path class="cls-1" d="M109.27,22.02c-3.03,0-5.49,2.46-5.49,5.49s2.46,5.5,5.49,5.5,5.5-2.46,5.5-5.5-2.46-5.49-5.5-5.49ZM109.39,31.26c-4.42.2-4.86-6.87-.77-7.43,5.27-.71,5.53,7.22.77,7.43Z"/>
  <path class="cls-1" d="M63.69,19.33c.38-3.77,4.83-4.87,7.59-2.79l-.76,1.51c-.11.08-.9-.43-1.12-.51-1.2-.42-2.85-.24-3.47,1.01-.05.11-.28.72-.28.79v2.88c.99.13,2.06.12,3.06.09.37-.01.82-.25,1.1.04v1.73h-4.17v8.56l-.13.13h-1.82v-8.69h-2.57v-1.77l2.57-.09c.07-.93-.09-1.97,0-2.88Z"/>
  <path class="cls-1" d="M125.45,22.21l3.37,7.54,3.32-7.41c.2-.26.48-.04.75-.04.44,0,.86-.08,1.29-.05l-5.93,13.14c-.87,1.97-2.92,2.9-4.85,1.72l.53-1.6c2.43,1.31,3.03-1.91,3.77-3.5l-4.26-9.8h2Z"/>
  <path class="cls-1" d="M98.8,15.74v6.56h3.64v1.77h-3.64v5.45c0,.09.24.72.31.84.81,1.26,2.55.99,3.54.09l1.02,1.29-.54.52c-1.54,1.13-4.1,1.04-5.36-.48-1.53-1.84-.57-5.46-.84-7.72h-2.17l-.13-.13v-1.64h2.17l.13-.13v-6.43h1.86Z"/>
  <path class="cls-1" d="M91.9,24.95s-.08-.21-.18-.3c-2.19-1.89-5.63-.55-5.94,2.32-.4,3.73,3.61,5.7,6.24,3.07.24.14,1.41.96,1.37,1.16-2.92,3.33-8.59,1.94-9.44-2.51-.95-4.92,4.3-8.54,8.45-5.79.25.16,1.02.66.87.99-.09.19-1.19,1.16-1.37,1.05Z"/>
  <path class="cls-1" d="M39.13,15.74v14.05s.14.55.17.63c.27.7.94.69,1.6.66v1.55c0,.29-1.07.24-1.28.22-.69-.07-1.45-.41-1.84-1-.16-.24-.51-1.1-.51-1.35v-14.76h1.86Z"/>
  <path class="cls-1" d="M118.4,32.76h-1.86v-10.55h1.55c.28.17.06,1.55.13,1.6.21.05.14-.04.2-.11.5-.74.79-1.17,1.7-1.48.43-.15,2.32-.38,2.42.15l-.33,1.59c-.7-.02-1.27-.16-1.95.08-1.58.55-1.79,2.26-1.87,3.72-.09,1.64.07,3.36,0,5.01Z"/>
  <circle class="cls-1" cx="17" cy="36.86" r="2.96"/>
  <circle class="cls-1" cx="25.63" cy="15.92" r="2.95"/>
  <circle class="cls-1" cx="8.37" cy="15.91" r="2.95"/>
  <circle class="cls-1" cx="8.39" cy="33.18" r="2.95"/>
  <circle class="cls-1" cx="17.01" cy="12.39" r="2.95"/>
  <circle class="cls-1" cx="25.62" cy="33.18" r="2.95"/>
  <circle class="cls-1" cx="29.1" cy="24.56" r="2.94"/>
  <circle class="cls-1" cx="4.9" cy="24.56" r="2.94"/>
  <rect class="cls-1" x="43.74" y="22.23" width="1.95" height="10.53"/>
  <circle class="cls-1" cx="19.66" cy="31.08" r="1.68"/>
  <circle class="cls-1" cx="14.36" cy="31.08" r="1.68"/>
  <circle class="cls-1" cx="19.65" cy="18.15" r="1.68"/>
  <circle class="cls-1" cx="14.36" cy="18.14" r="1.68"/>
  <circle class="cls-1" cx="10.6" cy="21.87" r="1.68"/>
  <circle class="cls-1" cx="23.41" cy="21.87" r="1.68"/>
  <circle class="cls-1" cx="10.61" cy="27.25" r="1.67"/>
  <circle class="cls-1" cx="23.4" cy="27.25" r="1.67"/>
  <circle class="cls-1" cx="44.72" cy="18.41" r="1.41"/>
  <path class="cls-1" d="M30.5,28.84c-.8,0-1.46.65-1.46,1.45s.65,1.46,1.46,1.46,1.45-.65,1.45-1.46-.65-1.45-1.45-1.45ZM30.48,31.47c-1.48,0-1.42-2.1-.33-2.32,1.88-.38,2.03,2.32.33,2.32Z"/>
  <path class="cls-1" d="M136.54,22.07c-.8,0-1.44.65-1.44,1.44s.64,1.44,1.44,1.44,1.44-.64,1.44-1.44-.65-1.44-1.44-1.44ZM136.53,24.68c-.65,0-1.17-.53-1.17-1.18s.52-1.18,1.17-1.18,1.18.53,1.18,1.18-.52,1.18-1.18,1.18Z"/>
  <path class="cls-1" d="M30.79,30.42c.87-.69-.12-1.08-.89-.93v1.59h.36v-.57s.22-.05.22-.05c.2.28.22.74.67.62l-.36-.66ZM30.26,30.19v-.44c.74-.1.72.54,0,.44Z"/>
  <path class="cls-1" d="M137.02,22.87c-.29-.32-.71-.13-1.07-.13v1.46c.6.46.11-.66.49-.58l.53.71c.32-.19-.12-.49-.11-.66.01-.14.54-.37.16-.8ZM136.26,23.01c.19-.27.79,0,.57.35-.13.21-.88.08-.57-.35Z"/>
</svg>