<?xml version="1.0" encoding="UTF-8"?>
<svg id="NINA_IBROW" data-name="NINA IBROW" xmlns="http://www.w3.org/2000/svg" viewBox="0 0 140 48">
  <defs>
    <style>
      .cls-1 {
        fill: #fff;
      }
    </style>
  </defs>
  <path class="cls-1" d="M97.59,6.67c-.73-.07-1.63.11-2.33-.03-.99-.2-3.21-1.4-4.43-1.81-7.88-2.64-16.11-2.62-23.27,1.92-4.22,2.68-7.8,6.97-9.45,11.72,1.35-1.38,2.8-2.27,4.69-2.74,3.45-.85,6.08.22,9.42.63,7.57.93,14.5-.51,20.18-5.74.6-.55,2.81-3.17,3.26-3.26.38-.08,1.73.09,2.2.15,3.16.39,5.74,1.88,8.52,3.29.51.08.93-.49,1.14-.88-3.04-1.5-6.49-2.94-9.92-3.26ZM79.02,7.53c-4.8.76-9.54,2.16-13.79,4.53-.87.49-1.64,1.14-2.54,1.55,1.24-1.17,2.71-2.13,4.21-2.94,6.06-3.27,12.98-4.02,19.8-4l-7.68.85ZM22.43,39.93c-.03-.82-.49-2.21-.64-3.12-.72-4.22-1.29-8.48-1.17-12.78l-4-1.27-3.96,12.08c-1.19-3.85-1.53-7.93-1.87-11.94l-3.96.97c-.43.35-1.47,4.34-1.66,5.14-.89,3.7-1.34,7.52-2.09,11.25l4.24.97,1.04-9.58,2.16,9.29c.14.12,3.39-.62,3.59-.76.33-.22.94-2.36,1.12-2.91.7-2.19,1.13-4.47,2.01-6.6.13,3.58.45,7.16,1.04,10.69.75-.27,3.55-.58,4.03-1.04.14-.13.14-.22.13-.4ZM41.1,24.15l-.27,7.36c-1.86-2.68-3.34-5.61-4.67-8.59l-4.69.96c.47,5.82,0,11.65,0,17.48l4.29-.85-.12-9.56,4.65,7.77.2,2.64,4.02-.98c.22-5.2.05-10.41.56-15.61.06-.57.22-1.16.28-1.73l-4.24,1.1ZM60.16,33.68c-.06-.26-.98-.5-1.22-.71-.45-.38-1.26-3.66-1.49-4.48-.21-.74-1.26-5.28-1.48-5.46-.09-.07-.18-.12-.29-.13-1.09.25-3.23.26-4.03,1.1-.41.44-.59,1.27-.79,1.84-.79,2.27-1.32,4.66-2.03,6.96l-2.79.45c-.11.71.15,3.28.7,3.73.19.16.79.23.81.42l-.93,2.67.21.3,3.84.71.2-.23.99-4.14,3.73-.18,1.54,4.78c.72-.04,3.75-1.2,3.87-1.84-.94-1.92-1.42-3.66-.83-5.8ZM52.55,32.76c.27-1.23.49-2.69.93-3.86.07-.18.08-.41.32-.45l.97,4.3h-2.22ZM28.82,23.53c.01-.19.08-.32.14-.48l-4.87.92c.5,5.8.5,11.6.15,17.4.59.09,4.8-.38,4.87-.64-.65-5.71-.7-11.47-.29-17.2ZM105.13,23.63c-4.85,0-8.78,3.93-8.78,8.78s3.93,8.78,8.78,8.78,8.78-3.93,8.78-8.78-3.93-8.78-8.78-8.78ZM105.13,39.76c-4.05,0-7.33-3.28-7.33-7.33s3.28-7.33,7.33-7.33,7.33,3.28,7.33,7.33-3.28,7.33-7.33,7.33ZM137.85,24.02c-.37-.04-1.08-.1-1.31.22l-5.01,13.38-4.88-13.72c-.34-.07-.72-.07-.85.3l-4.76,13.43-5.05-13.52-1.54-.08,6.34,16.94.62-.09,4.77-13.66,5.08,13.73.69-.05,6.09-16.68c.06-.27,0-.17-.19-.19ZM64.49,24.02v16.93h1.53v-16.93h-1.53ZM77.26,32.21c-.05-.21.03-.22.15-.34.36-.36.81-.6,1.16-1.06,2.05-2.76.06-6.38-3.18-6.79-1.63-.21-3.67.15-5.34,0v16.93h6.04c.46,0,1.94-.44,2.38-.67,3.62-1.82,2.76-7.36-1.2-8.08ZM71.43,25.34l.21-.21h2.5c.25,0,1.29.25,1.59.35,2.78.93,2.74,4.83.06,5.88-.17.07-.85.29-.96.29h-3.4v-6.32ZM76.08,39.7h-4.65v-6.59l.21-.21h3.61c.67,0,2.14.5,2.7.91,2.46,1.8.99,5.89-1.87,5.89ZM92.5,35.22c-.71-.99-1.4-1.99-2.33-2.8,4.57-1.61,3.89-7.81-1.04-8.4-1.74-.21-3.84.15-5.62,0v16.93h1.39v-8.05h3.12c.48,0,1.52.81,1.87,1.18,1.71,1.79,2.96,4.75,4.5,6.74l1.74.13-3.63-5.73ZM89.47,31.3c-.34.12-1.42.35-1.73.35h-2.85v-6.32l.21-.21h2.78c.12,0,1,.16,1.19.2,3.34.78,3.48,4.94.4,5.97Z"/>
  <g>
    <path class="cls-1" d="M97.59,6.67c-.73-.07-1.63.11-2.33-.03-.99-.2-3.21-1.4-4.43-1.81-7.88-2.64-16.11-2.62-23.27,1.92-4.22,2.68-7.8,6.97-9.45,11.72,1.35-1.38,2.8-2.27,4.69-2.74,3.45-.85,6.08.22,9.42.63,7.57.93,14.5-.51,20.18-5.74.6-.55,2.81-3.17,3.26-3.26.38-.08,1.73.09,2.2.15,3.16.39,5.74,1.88,8.52,3.29.51.08.93-.49,1.14-.88-3.04-1.5-6.49-2.94-9.92-3.26ZM79.02,7.53c-4.8.76-9.54,2.16-13.79,4.53-.87.49-1.64,1.14-2.54,1.55,1.24-1.17,2.71-2.13,4.21-2.94,6.06-3.27,12.98-4.02,19.8-4l-7.68.85Z"/>
    <g>
      <path class="cls-1" d="M126.65,23.9l4.88,13.72,5.01-13.38c.23-.32.94-.26,1.31-.22.19.02.25-.07.19.19l-6.09,16.68-.69.05-5.08-13.73-4.77,13.66-.62.09-6.34-16.94,1.54.08,5.05,13.52,4.76-13.43c.13-.37.51-.37.85-.3Z"/>
      <path class="cls-1" d="M77.26,32.21c-.05-.21.03-.22.15-.34.36-.36.81-.6,1.16-1.06,2.05-2.76.06-6.38-3.18-6.79-1.63-.21-3.67.15-5.34,0v16.93h6.04c.46,0,1.94-.44,2.38-.67,3.62-1.82,2.76-7.36-1.2-8.08ZM71.43,25.34l.21-.21h2.5c.25,0,1.29.25,1.59.35,2.78.93,2.74,4.83.06,5.88-.17.07-.85.29-.96.29h-3.4v-6.32ZM76.08,39.7h-4.65v-6.59l.21-.21h3.61c.67,0,2.14.5,2.7.91,2.46,1.8.99,5.89-1.87,5.89Z"/>
      <path class="cls-1" d="M92.5,35.22c-.71-.99-1.4-1.99-2.33-2.8,4.57-1.61,3.89-7.81-1.04-8.4-1.74-.21-3.84.15-5.62,0v16.93h1.39v-8.05h3.12c.48,0,1.52.81,1.87,1.18,1.71,1.79,2.96,4.75,4.5,6.74l1.74.13-3.63-5.73ZM89.47,31.3c-.34.12-1.42.35-1.73.35h-2.85v-6.32l.21-.21h2.78c.12,0,1,.16,1.19.2,3.34.78,3.48,4.94.4,5.97Z"/>
      <rect class="cls-1" x="64.49" y="24.02" width="1.53" height="16.93"/>
      <g>
        <path class="cls-1" d="M20.61,24.04c-.12,4.3.45,8.55,1.17,12.78.15.91.61,2.3.64,3.12,0,.18.01.27-.13.4-.48.45-3.28.77-4.03,1.04-.59-3.53-.91-7.11-1.04-10.69-.88,2.13-1.31,4.41-2.01,6.6-.17.55-.79,2.69-1.12,2.91-.21.14-3.45.88-3.59.76l-2.16-9.29-1.04,9.58-4.24-.97c.75-3.73,1.2-7.55,2.09-11.25.19-.8,1.23-4.79,1.66-5.14l3.96-.97c.34,4.01.69,8.08,1.87,11.94l3.96-12.08,4,1.27Z"/>
        <path class="cls-1" d="M36.16,22.93c1.33,2.97,2.8,5.9,4.67,8.59l.27-7.36,4.24-1.1c-.06.57-.22,1.16-.28,1.74-.52,5.2-.34,10.41-.56,15.61l-4.02.98-.2-2.64-4.65-7.77.12,9.56-4.29.85c0-5.83.48-11.66,0-17.48l4.69-.96Z"/>
        <path class="cls-1" d="M28.96,23.05c-.07.16-.13.29-.14.48-.41,5.73-.36,11.5.29,17.2-.07.26-4.27.73-4.87.64.35-5.8.35-11.61-.15-17.4l4.87-.92Z"/>
        <path class="cls-1" d="M60.16,33.68c-.06-.26-.98-.5-1.22-.71-.45-.38-1.26-3.66-1.49-4.48-.21-.74-1.26-5.28-1.48-5.46-.09-.07-.18-.12-.29-.13-1.09.25-3.23.26-4.03,1.1-.41.44-.59,1.27-.79,1.84-.79,2.27-1.32,4.66-2.03,6.96l-2.79.45c-.11.71.15,3.28.7,3.73.19.16.79.23.81.42l-.93,2.67.21.3,3.84.71.2-.23.99-4.14,3.73-.18,1.54,4.78c.72-.04,3.75-1.2,3.87-1.84-.94-1.92-1.42-3.66-.83-5.8ZM52.55,32.76c.27-1.23.49-2.69.93-3.86.07-.18.08-.41.32-.45l.97,4.3h-2.22Z"/>
      </g>
      <path class="cls-1" d="M105.13,23.63c-4.85,0-8.78,3.93-8.78,8.78s3.93,8.78,8.78,8.78,8.78-3.93,8.78-8.78-3.93-8.78-8.78-8.78ZM105.13,39.76c-4.05,0-7.33-3.28-7.33-7.33s3.28-7.33,7.33-7.33,7.33,3.28,7.33,7.33-3.28,7.33-7.33,7.33Z"/>
    </g>
  </g>
</svg>