<?xml version="1.0" encoding="UTF-8"?>
<svg id="Water_Colors_" data-name="Water Colors
" xmlns="http://www.w3.org/2000/svg" viewBox="0 0 140 48">
  <defs>
    <style>
      .cls-1 {
        fill: #fff;
      }
    </style>
  </defs>
  <path class="cls-1" d="M91.53,43.95c-.06-.08-.27-.07-.32.03l-.5,1.35c-.11-.29-.3-1.18-.47-1.38-.07-.08-.22-.04-.32-.05l-.1,1.77.24-.08.06-1.35.5,1.42h.16s.55-1.47.55-1.47l.08,1.4.24.08-.12-1.73ZM89.68,43.9h-1.33v.2s.54,0,.54,0v1.58h.25v-1.58h.54v-.2ZM80.12,42.45c-.01-.1,0-.06.07-.07.4-.05.65,0,1.07-.16,1.55-.59,1.43-2.97-.12-3.45-.21-.06-.54-.12-.75-.13h-2.27l-.07.07v6.97h.64v-3.25c.22.03.52-.07.69.07l2.29,3.18h.76l-2.31-3.23ZM78.77,41.78l-.07-.07v-2.44h1.9c.05,0,.48.15.55.19.65.36.76,1.42.24,1.93-.17.17-.7.39-.94.39h-1.67ZM66.95,45.09l-.07-.07v-6.38c-.2.03-.48-.07-.64.07v6.97h3.45v-.59h-2.73ZM86.3,42.28c-.69-.61-2.51-1.38-2.07-2.51.3-.77,1.25-.78,1.82-.3.11.1.37.44.42.47.12.07.56-.29.52-.42-.01-.05-.29-.39-.35-.44-1.19-1.14-3.28-.53-3.13,1.26.14,1.76,3.26,2.1,2.95,3.93-.08.45-.61.87-1.05.92-.95.11-1.35-.43-1.77-1.18l-.52.29c.48,1.54,2.6,2.15,3.64.81.77-.98.38-2.08-.47-2.83ZM73.27,38.5c-4.34.34-4.01,7.74.62,7.32,4.2-.38,3.83-7.67-.62-7.32ZM73.15,45.18c-3.04-.3-3.1-5.67.01-6.05,3.91-.47,4.15,6.46-.01,6.05ZM61.49,38.5c-4.09.32-4.07,7-.06,7.32,4.87.4,4.77-7.69.06-7.32ZM63.69,44.3c-1.36,1.55-3.68,1.01-4.42-.85-.67-1.71.17-4.09,2.17-4.3,2.69-.28,3.88,3.3,2.25,5.16ZM56.34,39.59c.33.22.51.48.8.72l.42-.37c.01-.06-.35-.48-.41-.55-1.12-1.11-3.11-1.2-4.34-.21-1.64,1.31-1.81,3.99-.45,5.57,1.35,1.55,3.99,1.45,5.18-.25l.02-.07-.47-.37c-2.11,2.54-5.53.55-4.94-2.58.37-1.96,2.46-3.03,4.18-1.89ZM85.4,33.19c.56-.23,1.06-.57,1.32-1.14.7-1.53-.26-3.47-2.04-3.47h-2.61l-.02,8.28h1.48v-3.42c0-.1.28-.11.32.03l1.82,3.4h1.65l-1.92-3.67ZM85.07,31.68c-.25.16-1.07.24-1.37.21-.07,0-.13,0-.17-.08v-1.67l.07-.07h1.08c.06,0,.4.17.47.22.41.35.39,1.09-.08,1.39ZM79.73,30.06v-1.48h-4.51l-.07.07v8.13l.07.07h4.43l.07-.07v-1.38c-.07-.11-.11-.02-.12-.02h-2.86l-.07-.07v-2.12l.07-.07h2.93v-1.48h-3.01v-1.58h3.05ZM68.99,28.58v1.48h1.53v6.72l.07.07h1.45v-6.8h1.53v-1.48h-4.58ZM65.99,28.6c-.06-.04-1.25-.04-1.41-.03-.07,0-.13,0-.17.08l-3.11,8.2h1.58l.67-1.72,3.37.02.64,1.69h1.58l-3.15-8.25ZM64.11,33.66l1.11-2.91,1.11,2.91h-2.22ZM59.68,28.58l-1.26,5.22-1.43-5.23-1.33.05-1.43,5.17-1.26-5.22h-1.53l1.99,8.28,1.38-.05,1.48-5.22,1.53,5.22c.09.1,1.24.04,1.46.03l1.92-8.26h-1.53ZM83.03,19.35c-2.23,0-4.03,1.8-4.03,4.03s1.8,4.03,4.03,4.03,4.03-1.8,4.03-4.03-1.8-4.03-4.03-4.03ZM83.03,26.97c-1.98,0-3.59-1.61-3.59-3.59s1.61-3.59,3.59-3.59,3.59,1.61,3.59,3.59-1.61,3.59-3.59,3.59ZM74.18,19.35c-2.22,0-4.03,1.8-4.03,4.03s1.8,4.03,4.03,4.03,4.03-1.8,4.03-4.03-1.8-4.03-4.03-4.03ZM74.18,26.96c-1.98,0-3.58-1.6-3.58-3.58s1.6-3.58,3.58-3.58,3.58,1.6,3.58,3.58-1.6,3.58-3.58,3.58ZM83.03,10.8c-2.22,0-4.03,1.8-4.03,4.03s1.8,4.03,4.03,4.03,4.03-1.8,4.03-4.03-1.8-4.03-4.03-4.03ZM83.03,18.41c-1.98,0-3.58-1.6-3.58-3.58s1.6-3.58,3.58-3.58,3.58,1.6,3.58,3.58-1.6,3.58-3.58,3.58ZM74.19,10.79c-2.22,0-4.03,1.8-4.03,4.03s1.8,4.03,4.03,4.03,4.03-1.8,4.03-4.03-1.8-4.03-4.03-4.03ZM74.18,18.4c-1.98,0-3.58-1.6-3.58-3.58s1.6-3.58,3.58-3.58,3.58,1.6,3.58,3.58-1.6,3.58-3.58,3.58ZM64.66,2.47l-1.06,18.47-1.55-18.47h-6.01l-1.5,18.77-1.26-18.77h-4.93l3.3,24.58h6.06l1.18-18.08,1.68,18.07h6.01s2.81-24.58,2.81-24.58h-4.73ZM83.03,2.15c-2.22,0-4.03,1.8-4.03,4.03s1.8,4.03,4.03,4.03,4.03-1.8,4.03-4.03-1.8-4.03-4.03-4.03ZM83.03,9.76c-1.98,0-3.58-1.6-3.58-3.58s1.6-3.58,3.58-3.58,3.58,1.6,3.58,3.58-1.6,3.58-3.58,3.58ZM74.19,2.16c-2.22,0-4.02,1.8-4.02,4.02s1.8,4.02,4.02,4.02,4.02-1.8,4.02-4.02-1.8-4.02-4.02-4.02ZM74.18,9.76c-1.98,0-3.58-1.6-3.58-3.58s1.6-3.58,3.58-3.58,3.58,1.6,3.58,3.58-1.6,3.58-3.58,3.58Z"/>
  <polygon class="cls-1" points="53.28 2.47 54.53 21.24 56.03 2.47 62.04 2.47 63.6 20.95 64.65 2.47 69.38 2.47 66.58 27.06 60.57 27.05 58.89 8.98 57.71 27.05 51.65 27.05 48.35 2.47 53.28 2.47"/>
  <path class="cls-1" d="M52.98,28.58l1.26,5.22,1.43-5.17,1.33-.05,1.43,5.23,1.26-5.22h1.53l-1.92,8.25c-.22.01-1.37.08-1.46-.03l-1.53-5.22-1.48,5.22-1.38.05-1.99-8.28h1.53Z"/>
  <path class="cls-1" d="M85.4,33.19c.56-.23,1.06-.57,1.32-1.14.7-1.53-.26-3.47-2.04-3.47h-2.61l-.02,8.28h1.48v-3.42c0-.1.28-.11.32.03l1.82,3.4h1.65l-1.92-3.67ZM85.07,31.68c-.25.16-1.07.24-1.37.21-.07,0-.13,0-.17-.08v-1.67l.07-.07h1.08c.06,0,.4.17.47.22.41.35.39,1.09-.08,1.39Z"/>
  <path class="cls-1" d="M65.99,28.6c-.06-.04-1.25-.04-1.41-.03-.07,0-.13,0-.17.08l-3.11,8.2h1.58l.67-1.72,3.37.02.64,1.69h1.58l-3.15-8.25ZM64.11,33.66l1.11-2.91,1.11,2.91h-2.22Z"/>
  <path class="cls-1" d="M79.73,28.58v1.48h-3.05v1.58h3.01v1.48h-2.93l-.07.07v2.12l.07.07h2.86s.05-.09.12.02v1.38l-.07.07h-4.43l-.07-.07v-8.13l.07-.07h4.51Z"/>
  <polygon class="cls-1" points="73.57 28.58 73.57 30.06 72.04 30.06 72.04 36.86 70.59 36.86 70.52 36.78 70.52 30.06 68.99 30.06 68.99 28.58 73.57 28.58"/>
  <path class="cls-1" d="M61.49,38.5c-4.09.32-4.07,7-.06,7.32,4.87.4,4.77-7.69.06-7.32ZM63.69,44.3c-1.36,1.55-3.68,1.01-4.42-.85-.67-1.71.17-4.09,2.17-4.3,2.69-.28,3.88,3.3,2.25,5.16Z"/>
  <path class="cls-1" d="M73.27,38.5c-4.34.34-4.01,7.74.62,7.32,4.2-.38,3.83-7.67-.62-7.32ZM73.15,45.18c-3.04-.3-3.1-5.67.01-6.05,3.91-.47,4.15,6.46-.01,6.05Z"/>
  <path class="cls-1" d="M80.12,42.45c-.01-.1,0-.06.07-.07.4-.05.65,0,1.07-.16,1.55-.59,1.43-2.97-.12-3.45-.21-.06-.54-.12-.75-.13h-2.27l-.07.07v6.97h.64v-3.25c.22.03.52-.07.69.07l2.29,3.18h.76l-2.31-3.23ZM78.77,41.78l-.07-.07v-2.44h1.9c.05,0,.48.15.55.19.65.36.76,1.42.24,1.93-.17.17-.7.39-.94.39h-1.67Z"/>
  <path class="cls-1" d="M83.03,2.15c-2.22,0-4.03,1.8-4.03,4.03s1.8,4.03,4.03,4.03,4.03-1.8,4.03-4.03-1.8-4.03-4.03-4.03ZM83.03,9.76c-1.98,0-3.58-1.6-3.58-3.58s1.6-3.58,3.58-3.58,3.58,1.6,3.58,3.58-1.6,3.58-3.58,3.58Z"/>
  <path class="cls-1" d="M83.03,10.8c-2.22,0-4.03,1.8-4.03,4.03s1.8,4.03,4.03,4.03,4.03-1.8,4.03-4.03-1.8-4.03-4.03-4.03ZM83.03,18.41c-1.98,0-3.58-1.6-3.58-3.58s1.6-3.58,3.58-3.58,3.58,1.6,3.58,3.58-1.6,3.58-3.58,3.58Z"/>
  <path class="cls-1" d="M74.19,10.79c-2.22,0-4.03,1.8-4.03,4.03s1.8,4.03,4.03,4.03,4.03-1.8,4.03-4.03-1.8-4.03-4.03-4.03ZM74.18,18.4c-1.98,0-3.58-1.6-3.58-3.58s1.6-3.58,3.58-3.58,3.58,1.6,3.58,3.58-1.6,3.58-3.58,3.58Z"/>
  <path class="cls-1" d="M74.19,2.16c-2.22,0-4.02,1.8-4.02,4.02s1.8,4.02,4.02,4.02,4.02-1.8,4.02-4.02-1.8-4.02-4.02-4.02ZM74.18,9.76c-1.98,0-3.58-1.6-3.58-3.58s1.6-3.58,3.58-3.58,3.58,1.6,3.58,3.58-1.6,3.58-3.58,3.58Z"/>
  <path class="cls-1" d="M83.03,19.35c-2.23,0-4.03,1.8-4.03,4.03s1.8,4.03,4.03,4.03,4.03-1.8,4.03-4.03-1.8-4.03-4.03-4.03ZM83.03,26.97c-1.98,0-3.59-1.61-3.59-3.59s1.61-3.59,3.59-3.59,3.59,1.61,3.59,3.59-1.61,3.59-3.59,3.59Z"/>
  <path class="cls-1" d="M74.18,19.35c-2.22,0-4.03,1.8-4.03,4.03s1.8,4.03,4.03,4.03,4.03-1.8,4.03-4.03-1.8-4.03-4.03-4.03ZM74.18,26.96c-1.98,0-3.58-1.6-3.58-3.58s1.6-3.58,3.58-3.58,3.58,1.6,3.58,3.58-1.6,3.58-3.58,3.58Z"/>
  <path class="cls-1" d="M57.15,39.39c.06.06.42.49.41.55l-.42.37c-.29-.24-.46-.5-.8-.72-1.72-1.14-3.81-.07-4.18,1.89-.59,3.13,2.83,5.12,4.94,2.58l.47.37-.02.07c-1.18,1.7-3.82,1.8-5.18.25s-1.19-4.25.45-5.57c1.23-.99,3.22-.89,4.34.21Z"/>
  <path class="cls-1" d="M83.13,44.3l.52-.29c.42.74.83,1.29,1.77,1.18.44-.05.97-.47,1.05-.92.31-1.83-2.8-2.17-2.95-3.93s1.95-2.4,3.13-1.26c.06.06.33.39.35.44.04.13-.41.49-.52.42-.05-.03-.3-.38-.42-.47-.58-.48-1.52-.47-1.82.3-.44,1.13,1.38,1.9,2.07,2.51.85.75,1.23,1.85.47,2.83-1.05,1.34-3.16.73-3.64-.81Z"/>
  <path class="cls-1" d="M66.87,38.63v6.38l.07.07h2.73v.59h-3.45v-6.97c.16-.15.44-.05.64-.07Z"/>
  <path class="cls-1" d="M90.72,45.33l.5-1.35c.04-.1.26-.11.32-.03l.12,1.73-.24-.08-.08-1.4-.55,1.48h-.16s-.5-1.43-.5-1.43l-.06,1.35-.24.08.1-1.77c.1,0,.25-.04.32.05.17.2.36,1.09.47,1.38Z"/>
  <polygon class="cls-1" points="89.68 43.9 89.68 44.1 89.14 44.1 89.14 45.68 88.89 45.68 88.89 44.1 88.35 44.1 88.35 43.9 89.68 43.9"/>
</svg>